<svg width="14" height="14" viewBox="0 0 14 14" fill="none" xmlns="http://www.w3.org/2000/svg">
<path d="M1.58611 7.56348H6.18154V12.1589C6.18154 12.626 6.56574 13.0177 7.04035 13.0177C7.51496 13.0177 7.89917 12.626 7.89917 12.1589V7.56348H12.4946C12.9617 7.56348 13.3534 7.17927 13.3534 6.70466C13.3534 6.23005 12.9617 5.84584 12.4946 5.84584H7.89917V1.25042C7.89917 0.783343 7.51496 0.391602 7.04035 0.391602C6.56574 0.391602 6.18154 0.783343 6.18154 1.25042V5.84584H1.58611C1.11904 5.84584 0.727295 6.23005 0.727295 6.70466C0.727295 7.17927 1.11904 7.56348 1.58611 7.56348Z" fill="#120F49"/>
</svg>
