<svg width="500" height="500" viewBox="0 0 500 500" fill="none" xmlns="http://www.w3.org/2000/svg">
<path d="M461.22 288.89V228.29C461.22 228.29 373.63 158.8 366.79 159.15C361.57 159.42 351.79 167.3 351.79 167.3C351.79 167.3 319.85 135.03 313.62 134.3C307.39 133.57 217.72 224.56 217.72 224.56V288.92L461.22 288.89Z" fill="#E0E0E0"/>
<path d="M461.22 288.89V228.29C461.22 228.29 373.63 158.8 366.79 159.15C361.57 159.42 351.79 167.3 351.79 167.3C351.79 167.3 319.85 135.03 313.62 134.3C307.39 133.57 217.72 224.56 217.72 224.56V288.92L461.22 288.89Z" fill="#E6E6E6"/>
<path d="M351.75 167.3L339.67 176.39C343.32 173.65 346.67 178.1 351.76 177.92C356.85 177.74 359.76 173.36 364.67 174.73C368.67 175.86 370.28 177.6 373.13 178.05C378.34 178.88 376.89 176.05 379.84 175.43C381.84 175.01 392.01 176.54 396.15 178.27C381.32 167.36 369.15 159.03 366.79 159.15C366.162 159.196 365.541 159.314 364.94 159.5C363.721 159.873 362.539 160.359 361.41 160.95C361.08 161.12 360.75 161.29 360.41 161.47C358.253 162.679 356.169 164.015 354.17 165.47C352.69 166.54 351.74 167.31 351.74 167.31L351.75 167.3Z" fill="#F5F5F5"/>
<path d="M311.09 153.94C315.03 154.25 321.44 158.04 324.09 155.65C326.74 153.26 332.77 148.98 335.4 151.45C326.52 143.16 316.74 134.65 313.57 134.27C311.49 134.01 300.09 144.01 285.83 157.43C291.83 153.94 295.92 158.21 299.48 159.15C303.04 160.09 307.15 153.62 311.09 153.94Z" fill="#F5F5F5"/>
<path opacity="0.3" d="M320.62 147C324.84 152.24 316.52 148.18 312.52 149.36C308.52 150.54 327.28 163.5 323.95 166.58C322.11 168.29 310.12 163.69 312.37 167.88C313.1 169.22 325.43 178.88 319.68 179.62C316.24 180.05 311.54 178.27 313.52 183.15C314.842 186.38 316.805 189.309 319.29 191.76L351.76 167.33C351.76 167.33 321.26 136.51 314.06 134.4L313.59 134.3C312.28 134.7 316.41 141.73 320.62 147Z" fill="white"/>
<path opacity="0.3" d="M366.79 159.15C366.575 159.167 366.361 159.197 366.15 159.24C364.05 160.17 369.45 166.56 370.59 168.91C371.81 171.45 360.24 168.91 359.76 170.62C359.28 172.33 375.46 183.99 375.64 186.08C375.82 188.17 361.11 184.14 360.64 186C360.17 187.86 377.4 201.19 377.64 205.09C377.77 207.22 371.44 205.62 366.54 203.89C363.13 202.69 357.54 203.89 362.44 209.69C365.37 213.12 461.18 285.98 461.18 285.98V228.29C457.85 225.62 373.5 158.81 366.79 159.15Z" fill="white"/>
<path d="M265.52 288.89V213.77C265.52 213.77 204.67 159.85 198.85 160.15C194.42 160.37 168.85 179.33 168.85 179.33C168.85 179.33 139 152.59 133.7 152C128.4 151.41 34.7 224 34.7 224V289L265.52 288.89Z" fill="#E0E0E0"/>
<path d="M265.52 288.89V213.77C265.52 213.77 204.67 159.85 198.85 160.15C194.42 160.37 168.85 179.33 168.85 179.33C168.85 179.33 139 152.59 133.7 152C128.4 151.41 34.7 224 34.7 224V289L265.52 288.89Z" fill="#E0E0E0"/>
<path d="M198.83 160.15C196.06 160.29 184.97 167.79 177.07 173.37C179.32 173.83 183.16 176.2 186.07 176.1C190.42 175.94 193.75 171.94 196.86 173.67C199.97 175.4 203.57 179.72 207.56 180.37C213.98 181.37 214.96 178.76 218.39 179.55C221.282 180.121 224.203 180.535 227.14 180.79C213.69 169.66 201.3 160 198.83 160.15Z" fill="#F5F5F5"/>
<path d="M131.57 168.66C134.92 168.93 140.36 172.15 142.64 170.12C144.92 168.09 147.82 166.51 150.57 167.32C153.32 168.13 157.4 169.44 157.4 169.44C148.4 161.76 136.77 152.35 133.66 151.97C131.93 151.75 120.8 159.34 106.59 169.66C113.69 168.26 115.26 174.21 119.87 173.19C124.71 172.11 128.22 168.4 131.57 168.66Z" fill="#F5F5F5"/>
<path opacity="0.3" d="M139.67 162.74C143.25 167.19 136.18 163.74 132.79 164.74C129.4 165.74 144.63 174.54 141.79 177.17C140.22 178.62 132.61 175.12 134.52 178.68C136.43 182.24 148.86 192.9 148.86 192.9L168.8 179.32C168.8 179.32 140.2 153.82 134.08 152.02L133.69 151.94C132.58 152.31 136.09 158.29 139.67 162.74Z" fill="white"/>
<path opacity="0.3" d="M200.81 169.9C201.81 172.06 193.27 168.45 192.86 169.9C192.45 171.35 204.5 183.59 204.65 185.37C204.8 187.15 194.01 181.37 193.65 182.97C193.29 184.57 207.9 195.88 208.11 199.19C208.22 201 202.84 199.64 198.67 198.19C195.78 197.19 190.99 198.19 195.2 203.12C197.66 206.01 264.71 262.12 265.53 262.81V213.81C265.53 213.81 204.68 159.89 198.87 160.19C198.67 160.203 198.473 160.237 198.28 160.29C196.59 161.17 199.86 167.92 200.81 169.9Z" fill="white"/>
<path d="M450 192.07C452.405 189.294 455.777 187.538 459.43 187.16C457.314 187.822 455.391 188.986 453.823 190.553C452.256 192.121 451.092 194.045 450.43 196.16C451.154 194.695 452.178 193.398 453.436 192.354C454.693 191.31 456.156 190.542 457.73 190.1C454.334 192.454 451.895 195.95 450.86 199.95C453.38 195.62 455.81 193.13 459.28 191.71C455.174 195.965 452.818 201.609 452.68 207.52C453.5 204.14 454.8 200.46 457.24 197.79C456.32 200.717 455.72 203.734 455.45 206.79C456.78 202.28 459 197.6 461.98 195.27C461.84 195.66 461.71 196.07 461.59 196.49C460.05 200.32 458.59 205.12 458.59 205.12C458.59 205.12 459.44 203.01 460.59 200.37C459.983 203.118 459.569 205.905 459.35 208.71C460.182 203.997 461.777 199.451 464.07 195.25C463.03 198.921 462.416 202.699 462.24 206.51C462.814 201.914 464.008 197.416 465.79 193.14C465.57 194.44 465.39 195.78 465.3 197.01C464.756 199.681 464.515 202.405 464.58 205.13C464.729 203.281 464.983 201.441 465.34 199.62C465.396 200.196 465.57 200.754 465.85 201.26C465.927 201.338 466.01 201.408 466.1 201.47C460.28 225.47 456.78 262.61 455.28 288.82L456.39 288.96H460.48C460.19 265.82 465.48 218.53 468.27 201.96C468.523 201.948 468.767 201.861 468.97 201.71C469.097 201.603 469.227 201.483 469.36 201.35C469.27 201.98 469.19 202.6 469.08 203.2C469.26 202.52 469.43 201.82 469.58 201.1C470.18 200.36 470.77 199.1 471.5 195.71C471.544 199.326 471.137 202.934 470.29 206.45C471.114 204.687 471.754 202.844 472.2 200.95C472.2 202.48 472.13 203.95 472.05 205.19C472.647 202.506 472.982 199.769 473.05 197.02C473.7 202.42 471.47 212.47 471.49 212.48C472.937 208.44 474.109 204.308 475 200.11C475.243 202.82 475.34 205.54 475.29 208.26C475.786 205.481 476.03 202.663 476.02 199.84C477.233 203.269 477.576 206.946 477.02 210.54C478.085 205.813 478.027 200.901 476.85 196.2C479.75 200.87 479.27 208.54 478.93 213.37C480.19 207.09 480.72 200.13 478.07 194.1C480.363 196.849 481.851 200.178 482.37 203.72C482.251 201.38 481.861 199.061 481.21 196.81C483.172 200.381 483.976 204.473 483.51 208.52C484.311 203.791 483.735 198.931 481.85 194.52C483.731 196.668 485.19 199.151 486.15 201.84C485.917 199.45 485.448 197.088 484.75 194.79C486.257 197.327 487.158 200.178 487.38 203.12C488.01 197.9 486.45 191.3 482.5 187.71C485.3 188.45 486.77 190.71 487.65 193.9C487.501 191.801 486.911 189.757 485.92 187.9C487.403 189.583 488.344 191.674 488.62 193.9C488.82 188.99 486.84 184.56 482.45 182.69C481.444 182.272 480.394 181.966 479.32 181.78C481.82 181.36 484.61 182.62 486.76 183.78C484.24 181.7 481.54 180.23 478.17 180.34C482.07 178.14 485.57 179.89 488.23 182.94C486.72 180.16 484.39 177.48 481.08 177.1C479.252 176.926 477.413 177.291 475.79 178.15C476.93 176.67 478.39 175.49 480.17 175.54C478.06 174.08 475.87 175.2 474.17 176.73C474.809 174.966 475.966 173.435 477.49 172.34C475.929 172.94 474.577 173.983 473.6 175.34C474.336 173.638 475.35 172.07 476.6 170.7C474.438 171.784 472.684 173.538 471.6 175.7C471.916 172.932 472.609 170.22 473.66 167.64C471.66 170.15 470.57 173.85 470.1 176.96C469.318 175.212 468.309 173.575 467.1 172.09C467.1 172.09 467.51 173.29 467.95 174.86C467.389 173.96 466.599 173.225 465.661 172.729C464.723 172.234 463.67 171.996 462.61 172.04C466.16 172.37 467.49 176.04 468.11 179.28C465.02 174.28 459.7 173.86 454.39 177C458.19 175.47 461.08 175.55 463.39 177.56C461.634 176.986 459.73 177.068 458.03 177.79C458.958 177.639 459.909 177.695 460.813 177.955C461.717 178.214 462.553 178.67 463.26 179.29C460.903 178.382 458.335 178.167 455.86 178.67C457.706 178.547 459.545 178.983 461.14 179.92C456.63 179.51 451.53 183.05 450.36 186.92C453.16 183.39 458.12 180.49 462.89 183.15C461.207 182.893 459.488 183.031 457.867 183.551C456.246 184.072 454.769 184.961 453.55 186.15C454.519 185.477 455.612 185.005 456.766 184.761C457.921 184.517 459.112 184.507 460.27 184.73C455.8 185.66 451.36 188.74 450 192.07Z" fill="#F5F5F5"/>
<path d="M456.88 164.72C456.184 162.422 455.263 160.198 454.13 158.08C456.103 160.272 457.543 162.89 458.34 165.73C457.93 160.5 455.12 154.32 450.55 151.57C453.44 151.75 455.33 153.7 456.81 156.64C456.253 154.6 455.276 152.699 453.94 151.06C455.73 152.437 457.062 154.323 457.76 156.47C457.01 151.61 454.2 147.66 449.53 146.68C448.462 146.457 447.371 146.36 446.28 146.39C448.65 145.49 451.63 146.18 453.97 146.89C451.09 145.35 448.16 144.43 444.88 145.19C448.27 142.28 452.04 143.31 455.25 145.78C453.25 143.35 450.42 141.18 447.09 141.45C445.258 141.626 443.519 142.339 442.09 143.5C442.93 141.83 444.09 140.39 445.87 140.09C443.53 139.09 441.6 140.6 440.23 142.42C440.523 140.567 441.362 138.844 442.64 137.47C441.22 138.364 440.096 139.659 439.41 141.19C439.786 139.377 440.462 137.64 441.41 136.05C439.514 137.525 438.14 139.568 437.49 141.88C437.258 139.103 437.41 136.306 437.94 133.57C436.59 136.665 436.017 140.043 436.27 143.41C435.154 141.847 433.836 140.438 432.35 139.22C432.35 139.22 432.99 140.31 433.73 141.77C433.014 140.998 432.108 140.428 431.102 140.118C430.096 139.807 429.026 139.767 428 140C431.55 139.64 433.56 143 434.8 146C430.8 141.7 425.5 142.32 420.9 146.43C424.33 144.19 427.18 143.7 429.83 145.23C427.995 145.012 426.143 145.459 424.61 146.49C425.491 146.175 426.43 146.058 427.362 146.146C428.293 146.234 429.194 146.526 430 147C427.515 146.562 424.957 146.846 422.63 147.82C424.416 147.342 426.304 147.411 428.05 148.02C423.55 148.5 419.23 152.96 418.84 157.02C420.9 153.02 425.2 149.2 430.4 150.88C428.701 150.949 427.041 151.411 425.55 152.23C424.06 153.049 422.779 154.203 421.81 155.6C422.629 154.75 423.611 154.074 424.697 153.61C425.782 153.146 426.95 152.905 428.13 152.9C423.94 154.73 420.19 158.61 419.54 162.13C421.359 158.939 424.328 156.564 427.84 155.49C425.912 156.555 424.27 158.07 423.051 159.904C421.833 161.739 421.074 163.84 420.84 166.03C421.267 164.451 422.022 162.979 423.056 161.711C424.09 160.443 425.379 159.407 426.84 158.67C423.961 161.636 422.249 165.543 422.02 169.67C423.65 164.94 425.55 162.01 428.68 159.95C425.477 164.92 424.259 170.914 425.27 176.74C425.43 173.27 425.98 169.4 427.86 166.31C427.529 169.344 427.529 172.406 427.86 175.44C428.28 170.76 429.56 165.74 432.02 162.88C431.97 163.28 431.92 163.71 431.88 164.15C431.12 168.21 430.58 173.21 430.58 173.21C430.58 173.21 431 170.97 431.66 168.15C431.591 170.963 431.725 173.777 432.06 176.57C431.963 171.79 432.639 167.025 434.06 162.46C433.759 166.259 433.89 170.08 434.45 173.85C434.126 169.228 434.426 164.583 435.34 160.04C435.34 161.36 435.46 162.71 435.62 163.94C435.595 166.668 435.887 169.389 436.49 172.05C436.266 170.205 436.156 168.348 436.16 166.49C436.327 167.044 436.606 167.558 436.98 168C437.071 168.063 437.168 168.117 437.27 168.16C437.714 197.535 439.817 226.862 443.57 256L448.81 255.65C443.97 233.22 439.94 185.19 439.43 168.3C439.677 168.236 439.9 168.1 440.07 167.91C440.181 167.776 440.285 167.636 440.38 167.49C440.42 168.123 440.45 168.743 440.47 169.35C440.47 168.65 440.54 167.93 440.55 167.2C441 166.35 441.32 164.98 441.39 161.54C442.135 165.079 442.437 168.697 442.29 172.31C442.752 170.419 443.02 168.486 443.09 166.54C443.38 168.05 443.6 169.48 443.77 170.74C443.834 167.987 443.633 165.234 443.17 162.52C444.85 167.69 444.63 177.99 444.64 177.99C445.236 173.766 445.55 169.506 445.58 165.24C446.344 167.871 446.965 170.542 447.44 173.24C447.384 170.419 447.079 167.608 446.53 164.84C448.373 167.924 449.431 171.412 449.61 175C449.734 170.167 448.724 165.372 446.66 161C450.41 165 451.43 172.64 452.04 177.44C452.04 171.03 451.22 164.1 447.45 158.71C450.235 160.958 452.34 163.935 453.53 167.31C452.966 165.033 452.133 162.831 451.05 160.75C453.664 163.859 455.251 167.702 455.59 171.75C455.447 166.954 453.938 162.298 451.24 158.33C453.504 160.087 455.417 162.255 456.88 164.72Z" fill="#F5F5F5"/>
<path d="M7.94 193.91C8.21599 191.684 9.15697 189.593 10.64 187.91C9.64882 189.767 9.05938 191.811 8.91 193.91C9.79 190.74 11.26 188.46 14.06 187.72C10.06 191.31 8.55 197.91 9.18 203.13C9.4025 200.188 10.3026 197.337 11.81 194.8C11.1117 197.098 10.6427 199.46 10.41 201.85C11.3703 199.161 12.8291 196.678 14.71 194.53C12.8251 198.941 12.2488 203.801 13.05 208.53C12.5842 204.483 13.3879 200.391 15.35 196.82C14.6987 199.071 14.3095 201.39 14.19 203.73C14.7088 200.188 16.197 196.859 18.49 194.11C15.84 200.11 16.37 207.11 17.63 213.38C17.29 208.55 16.81 200.88 19.71 196.21C18.5333 200.911 18.475 205.823 19.54 210.55C18.9837 206.956 19.3273 203.279 20.54 199.85C20.5295 202.673 20.7739 205.491 21.27 208.27C21.2201 205.55 21.3169 202.83 21.56 200.12C22.4303 204.296 23.5795 208.408 25 212.43C25 212.43 22.8 202.37 23.44 196.97C23.5078 199.719 23.8427 202.456 24.44 205.14C24.36 203.88 24.3 202.43 24.29 200.9C24.7362 202.794 25.3763 204.637 26.2 206.4C25.356 202.884 24.9529 199.276 25 195.66C25.73 199.02 26.32 200.31 26.92 201.05C27.07 201.77 27.24 202.47 27.42 203.15C27.31 202.55 27.23 201.93 27.14 201.3C27.2667 201.427 27.3967 201.547 27.53 201.66C27.7332 201.811 27.977 201.898 28.23 201.91C31 218.46 35.12 265.75 34.8 288.91H39.8L41.18 288.77C39.68 262.56 36.18 225.4 30.36 201.42C30.4498 201.358 30.5335 201.288 30.61 201.21C30.8904 200.704 31.0639 200.146 31.12 199.57C31.4769 201.391 31.7306 203.231 31.88 205.08C31.9454 202.355 31.7039 199.631 31.16 196.96C31.0613 195.663 30.8978 194.371 30.67 193.09C32.4519 197.366 33.6461 201.864 34.22 206.46C34.0438 202.649 33.4297 198.871 32.39 195.2C34.6835 199.401 36.2777 203.947 37.11 208.66C36.8913 205.855 36.4769 203.068 35.87 200.32C37.06 202.96 37.87 205.07 37.87 205.07C37.87 205.07 36.37 200.27 34.87 196.44C34.75 196.02 34.62 195.61 34.48 195.22C37.48 197.55 39.68 202.22 41.01 206.74C40.7403 203.684 40.1401 200.667 39.22 197.74C41.66 200.41 42.96 204.09 43.78 207.47C43.642 201.559 41.2861 195.915 37.18 191.66C40.65 193.08 43.08 195.57 45.6 199.9C44.5645 195.899 42.1265 192.404 38.73 190.05C40.3036 190.492 41.7666 191.26 43.0242 192.304C44.2818 193.348 45.3059 194.645 46.03 196.11C45.3733 194 44.2166 192.08 42.6583 190.513C41.1001 188.946 39.1864 187.779 37.08 187.11C40.7334 187.488 44.1055 189.244 46.51 192.02C45.19 188.69 40.75 185.61 36.29 184.63C37.45 184.415 38.6412 184.434 39.7936 184.687C40.946 184.939 42.0362 185.42 43 186.1C41.7815 184.911 40.3037 184.022 38.6829 183.501C37.0622 182.981 35.3428 182.843 33.66 183.1C38.43 180.44 43.39 183.34 46.19 186.87C45.02 182.98 39.92 179.44 35.41 179.87C37.0046 178.933 38.8444 178.497 40.69 178.62C38.2147 178.117 35.6472 178.332 33.29 179.24C33.9973 178.62 34.8329 178.164 35.7371 177.905C36.6413 177.645 37.5916 177.589 38.52 177.74C36.8199 177.018 34.9157 176.936 33.16 177.51C35.46 175.51 38.35 175.42 42.16 176.95C36.85 173.81 31.53 174.23 28.44 179.23C29.07 175.99 30.39 172.32 33.94 171.99C32.8801 171.946 31.8274 172.184 30.8894 172.679C29.9513 173.175 29.1613 173.91 28.6 174.81C29.04 173.24 29.45 172.04 29.45 172.04C28.2406 173.525 27.2319 175.162 26.45 176.91C25.98 173.8 24.87 170.1 22.89 167.59C23.9598 170.174 24.6697 172.893 25 175.67C23.9164 173.508 22.1624 171.754 20 170.67C21.2501 172.04 22.2639 173.608 23 175.31C22.023 173.953 20.6711 172.91 19.11 172.31C20.6336 173.408 21.7934 174.937 22.44 176.7C20.74 175.17 18.55 174.05 16.44 175.51C18.22 175.51 19.68 176.64 20.82 178.12C19.1971 177.261 17.358 176.896 15.53 177.07C12.22 177.45 9.89 180.13 8.38 182.91C11.04 179.86 14.54 178.11 18.44 180.31C15.07 180.2 12.37 181.67 9.85 183.75C12 182.6 14.79 181.34 17.29 181.75C16.2161 181.936 15.1663 182.242 14.16 182.66C9.72 184.57 7.74 189 7.94 193.91Z" fill="#F5F5F5"/>
<path d="M39.69 164.72C40.3859 162.422 41.307 160.198 42.44 158.08C40.4706 160.275 39.0305 162.892 38.23 165.73C38.64 160.5 41.45 154.32 46.02 151.57C43.13 151.75 41.24 153.7 39.76 156.64C40.3165 154.6 41.2941 152.699 42.63 151.06C40.8399 152.437 39.5083 154.323 38.81 156.47C39.56 151.61 42.37 147.66 47.04 146.68C48.1083 146.457 49.199 146.36 50.29 146.39C47.92 145.49 44.94 146.18 42.6 146.89C45.48 145.35 48.41 144.43 51.69 145.19C48.3 142.28 44.53 143.31 41.32 145.78C43.32 143.35 46.15 141.18 49.48 141.45C51.3121 141.626 53.0514 142.339 54.48 143.5C53.64 141.83 52.48 140.39 50.7 140.09C53.04 139.09 54.97 140.6 56.34 142.42C56.0469 140.567 55.2078 138.844 53.93 137.47C55.3499 138.364 56.4736 139.659 57.16 141.19C56.7844 139.377 56.1084 137.64 55.16 136.05C57.0263 137.537 58.3712 139.578 59 141.88C59.2368 139.103 59.0853 136.306 58.55 133.57C60 136.42 60.37 140.27 60.23 143.41C61.3409 141.845 62.6558 140.436 64.14 139.22C64.14 139.22 63.5 140.31 62.76 141.77C63.4852 140.981 64.4084 140.401 65.4336 140.09C66.4588 139.779 67.5487 139.748 68.59 140C65.04 139.64 63.03 143 61.79 146C65.79 141.7 71.09 142.32 75.69 146.43C72.26 144.19 69.41 143.7 66.76 145.23C68.6111 145.03 70.472 145.506 72 146.57C71.1176 146.245 70.1744 146.118 69.2375 146.199C68.3006 146.281 67.3932 146.568 66.58 147.04C69.0645 146.602 71.6226 146.886 73.95 147.86C72.1641 147.382 70.2757 147.451 68.53 148.06C73.03 148.54 77.35 153 77.74 157.06C75.68 153.06 71.38 149.24 66.18 150.92C67.8792 150.989 69.5393 151.451 71.0297 152.27C72.5202 153.089 73.8005 154.243 74.77 155.64C73.9505 154.79 72.969 154.114 71.8834 153.65C70.7979 153.186 69.6304 152.945 68.45 152.94C72.64 154.77 76.39 158.65 77.04 162.17C75.2229 158.982 72.258 156.607 68.75 155.53C70.677 156.596 72.3191 158.11 73.5375 159.945C74.7559 161.78 75.5148 163.88 75.75 166.07C75.3228 164.491 74.5677 163.019 73.5339 161.751C72.5001 160.483 71.2108 159.447 69.75 158.71C72.6292 161.676 74.3407 165.583 74.57 169.71C73 165 71.07 162 67.94 160C71.1434 164.97 72.3606 170.964 71.35 176.79C71.19 173.32 70.64 169.45 68.76 166.36C69.0907 169.394 69.0907 172.456 68.76 175.49C68.34 170.81 67.06 165.79 64.6 162.93C64.6 163.33 64.7 163.76 64.74 164.2C65.5 168.26 66.04 173.26 66.04 173.26C66.04 173.26 65.64 171 65 168.17C65.0691 170.983 64.9354 173.797 64.6 176.59C64.7015 171.809 64.026 167.044 62.6 162.48C62.9011 166.279 62.7703 170.1 62.21 173.87C62.5335 169.248 62.2342 164.603 61.32 160.06C61.32 161.38 61.2 162.73 61.04 163.96C61.0628 166.687 60.7743 169.408 60.18 172.07C60.3951 170.225 60.502 168.368 60.5 166.51C60.3372 167.066 60.0577 167.581 59.68 168.02C59.5892 168.083 59.492 168.137 59.39 168.18C58.9153 197.55 56.7819 226.87 53 256L47.76 255.65C52.6 233.22 56.63 185.19 57.14 168.3C56.893 168.236 56.6704 168.1 56.5 167.91C56.3887 167.776 56.2852 167.636 56.19 167.49C56.15 168.123 56.12 168.743 56.1 169.35C56.1 168.65 56.03 167.93 56.02 167.2C55.57 166.35 55.25 164.98 55.18 161.54C54.4352 165.079 54.1329 168.697 54.28 172.31C53.818 170.419 53.55 168.486 53.48 166.54C53.19 168.05 52.97 169.48 52.8 170.74C52.7358 167.987 52.9367 165.234 53.4 162.52C51.72 167.65 51.94 178 51.93 178C51.3354 173.759 51.0247 169.483 51 165.2C50.2355 167.831 49.6146 170.502 49.14 173.2C49.1962 170.379 49.5007 167.568 50.05 164.8C48.2113 167.898 47.1638 171.401 47 175C46.8756 170.167 47.886 165.372 49.95 161C46.2 165 45.18 172.64 44.57 177.44C44.57 171.03 45.39 164.1 49.16 158.71C46.3752 160.958 44.2701 163.935 43.08 167.31C43.6443 165.033 44.4768 162.831 45.56 160.75C42.9455 163.859 41.3593 167.702 41.02 171.75C41.1633 166.954 42.6724 162.298 45.37 158.33C43.0915 160.084 41.1644 162.252 39.69 164.72Z" fill="#F5F5F5"/>
<path d="M250 486.27C384.752 486.27 493.99 419.901 493.99 338.03C493.99 256.159 384.752 189.79 250 189.79C115.248 189.79 6.01001 256.159 6.01001 338.03C6.01001 419.901 115.248 486.27 250 486.27Z" fill="#D9F4FD"/>
<path opacity="0.3" d="M250 486.27C384.752 486.27 493.99 419.901 493.99 338.03C493.99 256.159 384.752 189.79 250 189.79C115.248 189.79 6.01001 256.159 6.01001 338.03C6.01001 419.901 115.248 486.27 250 486.27Z" fill="black"/>
<g opacity="0.1">
<path d="M432.66 436.3C429.041 434.744 425.33 433.409 421.55 432.3C418.27 431.45 413.85 431.06 410.34 432.65C408.408 433.543 406.833 435.061 405.87 436.96C404.552 439.268 403.718 441.82 403.42 444.46C403.18 447.01 403.55 449.46 402.94 452.09C402.798 452.669 402.608 453.234 402.37 453.78C405.137 452.447 407.873 451.05 410.58 449.59C410.98 448.07 411.4 446.59 411.85 445.02C412.171 443.762 412.683 442.562 413.37 441.46C414.101 440.314 415.248 439.496 416.57 439.18C417.221 439.126 417.876 439.215 418.49 439.44C420.36 439.96 422.96 440.37 425.61 440.89C428.03 439.397 430.38 437.867 432.66 436.3Z" fill="#D9F4FD"/>
<path d="M35.92 292C44.45 289.85 54.1 286.74 57.35 281.73C60.87 276.36 55.18 271.89 51.68 267.48C48.36 263.31 47.05 258.15 49.94 253.11C46.2333 256.37 42.7633 259.667 39.53 263C39.8403 264.56 40.4081 266.057 41.21 267.43C42.27 269.22 43.71 270.72 44.66 272.6C45.2098 273.609 45.521 274.73 45.5695 275.878C45.6181 277.025 45.4027 278.169 44.94 279.22C43.29 282.82 38.94 284.87 35.23 285.69C30.94 286.64 26.76 286.69 22.47 287.53C21.73 287.68 20.99 287.87 20.24 288.08C17.9023 292.061 15.8181 296.186 14 300.43C19.06 296.29 27.94 294.05 35.92 292Z" fill="#D9F4FD"/>
<path d="M164.16 476.83C168.053 477.723 172 478.547 176 479.3C172.747 477.985 169.309 477.186 165.81 476.93C165.23 476.88 164.69 476.86 164.16 476.83Z" fill="#D9F4FD"/>
<path d="M479.33 388.7C476.96 389.26 474.53 389.7 472.15 390.07C464.64 391.2 457.7 389.38 451.06 387.82C444.96 386.38 438.96 384.71 432.65 383.72C430.29 383.34 427.97 383.26 425.98 385.94C424.46 387.99 424.77 390.45 422.6 392.27C419.77 394.63 413.82 394.98 410.54 393.67C407.26 392.36 405.92 389.99 404.41 387.8C398.05 378.63 386.83 371.1 372.27 366.23C369.7 365.37 366.91 364.52 365.73 362.94C364.55 361.36 365.17 359.15 365.91 357.15L369.64 346.75C369.906 345.772 370.486 344.908 371.29 344.29C372.85 343.17 375.43 342.82 377.65 342.73C386.01 342.39 393.74 344.34 402.2 342.73C409.02 341.48 414.79 338.18 420.7 335.45C427.198 332.486 433.953 330.12 440.88 328.38C450.06 326.08 460.3 324.81 467.88 326.86C475.46 328.91 478.56 335.25 472.31 340.01C470.31 341.55 467.56 342.78 465.75 344.4C461.82 347.87 463.52 351.89 466.82 354.62C470.73 357.88 476.47 360.14 481.82 362.56C484.447 363.713 486.99 365.05 489.43 366.56C490.01 364.76 490.52 362.94 490.99 361.12C489.049 360.314 487.17 359.365 485.37 358.28C483.31 357.05 480.85 356.58 478.86 355.18C476.43 353.47 474.99 351.12 475.97 348.59C476.95 346.06 480.03 343.76 482.07 341.33C486.69 335.77 485.19 329.47 478.45 326.33C475.05 324.75 470.13 323.39 470.87 320.52C471.61 317.65 477.09 315.81 481.55 314.13C484.345 313.085 487.077 311.876 489.73 310.51C488.897 307.81 487.94 305.123 486.86 302.45C483.1 307.19 476.35 310.76 471.25 312.77C462.25 316.31 451.69 317.89 443.39 322.02C439.07 324.15 434.39 327.21 429.58 326.82C426.31 326.55 424.69 324.65 424.42 322.73C424.15 320.81 424.78 318.73 424.42 316.82C423.78 313.69 420.34 311.31 416.49 309.39C405.49 303.92 390.2 300.81 383.38 293.25C382.16 291.91 381.28 290.25 382.63 288.61C385.47 285.17 394.15 285.37 399.28 282.76C404.58 280.06 403.87 275.76 402.57 272.43L398.57 262.43C397.62 260.03 396.65 257.61 397.16 254.98C397.67 252.35 399.84 249.47 403.83 247.66C409.54 245.08 416.74 245.48 422.35 246.59C426.437 247.271 430.4 248.555 434.11 250.4C449.85 259.07 439.87 278.13 455.11 287.09C458.973 289.284 463.417 290.237 467.84 289.82C471.74 289.47 475.69 288.15 479.55 287.73C477.89 284.937 476.093 282.17 474.16 279.43C471.298 279.629 468.425 279.255 465.71 278.33C457.71 274.97 457.48 264.01 453.51 256.5C453.42 256.33 453.32 256.17 453.22 256C448.717 251.896 444.007 248.024 439.11 244.4C438.35 244.06 437.58 243.727 436.8 243.4C429.8 240.75 422.23 239.29 415.04 237.02C414.04 236.69 413.04 236.31 412.7 235.38C412.23 234.11 413.1 231.22 414.3 228.45C396.793 218.874 378.329 211.165 359.21 205.45C355.47 205.65 351.7 205.98 347.95 206.26C347.428 206.342 346.894 206.272 346.41 206.06C345.65 205.57 345.86 204.34 346.03 203.32C346.13 202.81 346.2 202.32 346.25 201.8C343.93 201.19 341.6 200.62 339.25 200.06C339.293 201.185 339.172 202.31 338.89 203.4C338.447 205.14 337.597 206.749 336.41 208.095C335.222 209.441 333.731 210.484 332.06 211.14C330.06 212.04 327.62 212.55 325.69 213.51C324.062 214.331 322.681 215.57 321.69 217.1C318.91 221.42 320.29 226 325.19 228.56C327.79 229.9 331.19 230.7 334.07 231.86C336.461 232.77 338.637 234.166 340.46 235.96C342.46 238.03 343.12 241.16 339.46 243.21C337.579 244.122 335.574 244.752 333.51 245.08C323.97 247.08 312.6 248.88 306.65 245.47C302.28 242.96 302.65 238.47 300.12 235.15C298.62 233.15 296.12 231.66 293.45 230.29C283.87 225.39 271.31 222.35 257.45 221.56C252.6 221.29 247 221.07 244.91 218.73C243.68 217.34 244.02 215.52 244.4 213.79C245.51 208.46 247.91 202.67 253.04 198.87C255.42 197.1 263.88 193.09 262.35 190.01C257.083 189.85 251.81 189.793 246.53 189.84C247.668 190.064 248.766 190.455 249.79 191C250.49 191.41 251.03 191.93 251.02 192.56C251.02 194.25 247.47 195.51 244.94 196.74C242.51 197.791 240.469 199.574 239.1 201.84C238.719 202.847 238.254 203.821 237.71 204.75C236.783 205.944 235.427 206.73 233.93 206.94C231.58 207.3 230.09 206.17 228.43 205.48C222.34 202.85 211.56 205.7 204.17 204.2C201.899 203.655 199.7 202.843 197.62 201.78C192.62 199.54 186.95 197.73 181.54 195.78C178.067 196.4 174.613 197.067 171.18 197.78C176.74 198.963 182.079 201.015 187 203.86C192.51 206.94 198.16 210.53 206.68 210.57C212.49 210.57 218.83 208.93 224.5 209.27C233.32 209.82 237.24 216.22 231.8 221.27C229.68 223.27 226.58 224.86 223.8 226.57C218.22 229.96 213.56 233.96 211.7 238.16C209.84 242.36 211.04 246.71 215.91 249.08C218.69 250.42 225.91 251.17 223.54 253.41C219.81 256.96 210.8 253.89 204.91 253.11C200.175 252.389 195.36 252.369 190.62 253.05C184.06 254.05 177.15 256 171.01 255.14C166.56 254.53 160.74 252.89 159.56 248.35C158.56 244.68 161.13 240.35 159.45 236.92C157.22 232.33 148.54 230.58 140.56 229.34C132.58 228.1 123.77 226.63 120.88 222.24C118.88 219.24 120.17 215.45 123.29 212.12C123.66 211.72 124.07 211.31 124.49 210.92C119.983 212.573 115.54 214.317 111.16 216.15C110.695 219.226 110.998 222.369 112.04 225.3C113.04 227.83 114.63 230.55 113.04 233.51C112.04 235.51 109.8 236.9 107.81 238.07C105.26 239.59 102.54 241.14 99.9 241.24C96.74 241.37 94.54 239.34 92.34 237.63C88.7209 234.948 84.683 232.884 80.39 231.52C79.39 232.09 78.45 232.65 77.49 233.24C71.3967 236.94 65.7 240.78 60.4 244.76C65.2704 242.487 70.6376 241.486 76 241.85C81.57 242.42 85.31 244.85 88.47 247.33C90.33 248.78 92.15 250.33 92.47 252.33C92.67 253.85 91.92 255.48 91.86 257.04C91.63 261.04 95.71 264.09 100.08 266.6C104.23 268.99 109.08 272.03 106.38 275.85C105.429 276.94 104.407 277.965 103.32 278.92C100.24 282.08 100.24 285.8 103.32 288.12C106.89 290.81 113.99 291.59 116.32 294.81C118.65 298.03 114.14 303.12 107.46 304.73C100.78 306.34 94.01 304.73 87.63 306.73C81.52 308.63 78.06 313.13 71.85 314.73C65.85 316.32 60.27 314.54 54.67 313.83C49.0536 313.216 43.3739 313.554 37.87 314.83C34.59 315.55 31.4 316.6 28.09 317.15C25.1152 317.628 22.069 317.381 19.21 316.43C16.0525 315.464 13.2964 313.495 11.36 310.82C11.0734 310.405 10.8415 309.955 10.67 309.48C9.61036 312.637 8.71911 315.848 8 319.1C11.9 320.58 15.44 322.56 15.73 325.45C16.02 328.34 13.05 331.39 11.93 334.39C10.21 338.98 12.98 343.16 16.46 346.73C19.94 350.3 24.17 353.63 25.7 357.83C26.1798 359.045 26.3067 360.372 26.0661 361.656C25.8255 362.94 25.2272 364.131 24.34 365.09C22.26 367.48 18.48 369.35 15.07 371.27C14.29 371.71 13.5 372.17 12.72 372.64C13.5667 374.793 14.4967 376.933 15.51 379.06C16.91 377.97 18.44 376.91 19.99 375.9C25.66 372.24 32.15 368.74 35.76 364.47C39.07 360.54 39.58 356.2 37.12 352.87C33.34 347.7 23.23 345.15 20.41 339.68C17.59 334.21 23.59 326.89 33.41 323.4C39.7382 321.294 46.4147 320.435 53.07 320.87C61.8939 321.208 70.5009 323.701 78.14 328.13C83.33 331.25 87.4 335.73 84.41 340.65C81.67 345.17 73.41 349.09 72.67 353.65C71.99 357.44 76.9 360.02 81.88 361.77C86.86 363.52 92.6 365.16 94.51 368.45C96.12 371.21 94.7 374.65 95.51 377.64C97.83 386.44 117.36 388.22 124.24 395.64C125.14 396.64 125.59 398.1 123.8 399C122.849 399.399 121.831 399.616 120.8 399.64C116.24 400.02 111.17 401.41 108.39 398.84C105.61 396.27 105.55 393.04 102.71 390.69C98.12 386.85 89.79 384.79 80.71 385.24C71.63 385.69 62 388.59 55.15 393C53.15 394.31 51.33 395.73 49.15 397C43.6 400.14 35.86 401.56 29.2 401.21C33.9074 407.27 39.0797 412.954 44.67 418.21C55.34 424.89 71.81 424.75 79.55 434.65C82.33 438.21 83.71 442.74 85.04 447.31C96.1612 453.49 107.707 458.874 119.59 463.42C121.23 462.49 122.36 461.92 122.36 461.92C126.68 459.87 129.21 456.56 128.58 453.86C128.357 453.329 128.304 452.742 128.43 452.18C128.718 451.648 129.126 451.189 129.62 450.84C133.24 447.99 140.17 446.6 144.62 447.84C148.35 448.84 150.14 451.27 153.84 452.29C157.74 453.29 162.91 452.61 167.69 451.87C170.915 451.264 174.189 450.956 177.47 450.95C180.62 451.06 183.56 451.89 184.47 453.53C185.38 455.17 184.12 457.3 183.98 459.21C183.75 462.74 187.61 465.45 192.6 466.86C197.59 468.27 203.6 468.56 209.6 468.86C215.6 469.16 221.6 469.46 226.53 470.86C229.412 471.609 232.097 472.974 234.4 474.86C234.786 475.1 235.104 475.434 235.324 475.832C235.545 476.229 235.66 476.676 235.66 477.13C235.377 477.95 234.888 478.683 234.24 479.26C232.84 480.8 231.433 482.353 230.02 483.92C229.46 484.54 228.88 485.16 228.27 485.77C231.21 485.92 234.16 486.05 237.1 486.15C240.52 483.55 243.8 480.77 245.16 477.83C246.52 474.89 245.48 471.6 241.39 470.35C239.11 469.66 236.17 469.65 233.79 469.03C231.41 468.41 229.6 466.84 231.12 465.24C232.12 464.24 234.12 463.56 236.04 463.1C251.09 459.4 267.7 459.95 281.35 454.23C289.15 450.94 294.81 446.02 302.65 442.76C311.84 438.89 323.65 437.86 331.89 440.19C335.214 441.118 338.335 442.661 341.09 444.74C345.03 447.65 347.9 451.32 347.2 455.5C346.5 459.68 341.48 464.4 334.31 466.22C328.26 467.74 322.25 466.99 316.37 466.75C310.644 466.517 304.908 466.755 299.22 467.46C294.31 468.06 289.15 469.07 285.02 471.13C278.14 474.55 275.82 480.13 277.28 484.41C277.396 484.75 277.529 485.084 277.68 485.41C281.2 485.17 284.68 484.88 288.2 484.54C287.845 483.006 288.073 481.395 288.84 480.02C290.68 476.57 294.95 474.88 298.59 474.11C312.27 471.26 324.88 474.71 338.52 472.4C343.34 471.57 348.44 470.05 352.74 471.01C353.612 471.216 354.461 471.514 355.27 471.9C361.13 470.187 366.903 468.33 372.59 466.33C370.34 465.961 368.157 465.264 366.11 464.26C364.118 463.307 362.349 461.945 360.917 460.264C359.486 458.582 358.423 456.619 357.8 454.5V452.74C357.98 446.74 352.94 441.57 344.6 439.03C342.277 438.477 339.998 437.755 337.78 436.87C335.84 435.87 334.59 434.32 335.53 432.63C336.203 431.696 336.996 430.855 337.89 430.13C340.67 427.39 341.48 424.19 340.06 421.67C339.14 420.07 337.6 418.1 340.06 416.61C341.779 415.732 343.757 415.504 345.63 415.97C347.02 416.387 348.31 417.085 349.42 418.02C353.005 420.639 357.302 422.107 361.74 422.23C371.28 422.52 380.74 417.32 388.29 412.64L400.29 405.19C403.73 403.07 407.88 400.7 412.34 400.61C415.04 400.53 417.2 401.33 419.71 401.66C422.919 401.921 426.145 401.897 429.35 401.59C443.16 400.92 456.25 402.8 466.28 406.87C471.151 401.205 475.517 395.125 479.33 388.7ZM332.91 223.47C332.47 218.83 340.25 213.7 348.57 211.87C356.397 210.299 364.48 210.538 372.2 212.57C380.445 214.654 388.227 218.267 395.14 223.22C399.49 226.32 403.4 229.81 404.14 234.13C404.31 234.902 404.294 235.703 404.094 236.468C403.894 237.233 403.516 237.94 402.99 238.53C401.79 239.94 399.67 241.08 397.66 242.21C392.66 245.03 387.82 248.02 384.38 251.44C380.94 254.86 378.98 258.76 380.16 262.06C381.42 265.58 385.97 268.01 388.48 271.15C390.99 274.29 390.43 279.23 384.37 281.67C382.423 282.354 380.413 282.847 378.37 283.14C372.225 284.193 365.926 283.91 359.9 282.31C358.795 281.919 357.786 281.295 356.943 280.48C356.099 279.666 355.44 278.681 355.01 277.59C353.57 273.99 354.72 269.34 355.77 264.97C356.72 260.97 357.63 256.64 356.19 253.29C354.98 250.49 351.99 249.1 350.96 246.16C350.27 244.16 350.58 241.75 350.45 239.51C349.87 229.65 333.75 232.73 332.91 223.47ZM300.75 258.8C306.32 254.48 315.43 251.96 323.8 251.25C335.31 250.3 347.01 252.93 349.14 259.01C350.99 264.25 345.48 270.5 345.65 276.09C345.89 283.3 355.34 287.98 364.21 292.09L393.21 305.33C404.21 310.33 415.88 316.18 415.89 325.15C415.9 326.363 415.651 327.564 415.159 328.673C414.668 329.782 413.945 330.773 413.04 331.58C409.69 334.8 403.45 336.83 397.52 337.85C386.62 339.73 379.95 338.18 370.19 336.76C368.19 336.47 365.74 336.18 364.68 335.89C364.13 335.73 362.23 335.5 362.23 335.5C356.16 334.42 354.31 334.16 349.88 331.96C347.02 330.52 344.6 328.63 344.48 326.21C344.36 323.79 346.35 321.37 346.48 319C346.61 316.63 344.7 314.39 342.77 312.4C340.08 309.67 337.17 306.88 332.37 305.4C327.37 303.82 320.8 303.84 314.52 303.89C308.24 303.94 301.69 303.98 296.6 302.47C291.51 300.96 288.29 297.36 290.89 293.69C292.24 291.8 294.82 290.2 296.89 288.46C302.76 283.46 303.48 277.07 298.65 273.12C297.34 272.05 295.65 271.12 294.92 269.86C293.92 268.09 294.83 265.86 296.16 263.86C297.393 261.926 298.945 260.216 300.75 258.8ZM314.16 378.37C315.46 381.27 316.7 384.71 313.04 387.6C310.906 389.069 308.539 390.167 306.04 390.85C299.528 393.403 292.386 393.885 285.59 392.23C281.52 391.1 276.4 387.83 272.53 386.6C269.79 385.71 265.92 384.96 263.08 384.16C260.24 383.36 258 381.75 258.62 379.71C259.37 377.24 263.67 375.3 266.94 373.29C275.33 368.13 277.89 360.42 272.83 355.62C271.23 354.13 269 352.9 267.69 351.28C266.38 349.66 266.22 347.45 268.53 345.69C272.53 342.69 279.65 343.32 285.47 341.98C293.59 340.14 298.53 334.52 306.33 331.98C314.33 329.37 322.83 330.64 329.9 332.25C337.47 333.99 344.85 336.08 350.2 339.45C355.55 342.82 358.67 347.62 356.85 352.86C355.03 358.1 347.51 363.54 338.49 365.08C334.58 365.76 330.72 365.7 326.82 366.08C322.92 366.46 318.61 367.29 315.82 369.22C311.91 372 312.84 375.5 314.16 378.37ZM157.23 326.26C153.651 322.779 149.354 320.124 144.64 318.48C139.89 316.69 134.37 315.48 130.07 313.34C125.77 311.2 122.66 307.97 124.24 304.25C125.6 301 130.38 298 135.71 296.25C141.121 294.631 146.742 293.826 152.39 293.86C163.22 293.72 173.29 295.51 180.95 298.96C183.95 300.29 186.61 301.96 186.78 304.39C186.92 306.11 185.72 307.95 184.89 309.74C183.22 313.42 183.54 317.6 188.46 319.2C191.87 320.31 196.62 319.94 200.6 320.46C204.58 320.98 207.93 323.39 205.36 325.76C204.29 326.551 203.164 327.263 201.99 327.89C198.18 330.43 198.53 333.74 198.37 336.69C198.12 340.88 196.26 345.27 192.92 349.44C192.661 349.856 192.356 350.242 192.01 350.59C185.69 355.5 180.88 362 171.42 364.19C165.03 365.68 158.99 363.85 155.72 361.19C151.72 357.88 150.67 353.19 152.86 348.65C154.93 344.29 159.8 340.01 160.86 335.65C161.65 332.16 159.89 329 157.23 326.26ZM212 289.81C213.79 284.65 223.45 280.02 232.35 279.38C241.25 278.74 248.83 281.55 252.27 285.72C255.12 289.18 255.45 293.42 257.07 297.26C258.937 301.412 261.909 304.971 265.66 307.55C267.986 309.28 270.63 310.537 273.44 311.25C280.69 313.02 290.15 311.41 298.92 310.35C305.036 309.475 311.225 309.234 317.39 309.63C323.23 310.18 328.51 311.8 331.12 314.63C332.93 316.63 334.12 319.94 331.37 322.25C328.62 324.56 323.58 324.85 320.21 323.72C319.526 323.582 318.826 323.542 318.13 323.6C312.471 324.006 306.885 325.115 301.5 326.9C295.04 329.16 289.63 332.5 283.28 334.9C276.93 337.3 268.63 338.66 264 336.41C257.37 333.21 263 325.64 259.35 320.98C256.8 317.66 250.08 316.39 243.58 315.8C238.328 315.285 233.041 315.231 227.78 315.64C222.59 316.11 217.31 317.17 212.23 317.26C207.15 317.35 202.29 316.4 198.9 314.58C196.6 313.35 194.9 311.43 196.28 309.37C198.28 306.37 205.1 305.15 208.72 302.54C214 298.78 210.51 294.18 212 289.81ZM199.16 359.11C202.047 351.25 204.93 343.397 207.81 335.55C208.89 332.62 210.02 329.55 213.05 326.88C217.05 323.34 224.05 320.82 230.63 320.58C237.21 320.34 242.84 322.44 244.63 325.75C245.84 327.94 245.48 330.52 245.8 332.92C246.379 336.703 248.405 340.112 251.45 342.43C253.45 344.09 255.95 346.19 253.59 348.3C251.23 350.41 246.37 350.42 242.43 350.98C236.133 351.884 230.277 354.733 225.68 359.13C221.96 362.87 220.23 366.92 218.58 370.89C217.34 373.83 216.097 376.787 214.85 379.76C214.138 381.807 212.987 383.673 211.48 385.23C207.96 388.65 200.81 390.88 194.66 390.89C188.51 390.9 182.66 389.22 180.57 386.16C180.368 385.756 180.204 385.334 180.08 384.9C179.95 382.09 181.94 380.4 184.8 377.67C186.69 375.87 189.13 374.23 191.1 372.45C195.78 368.28 197.53 363.61 199.18 359.11H199.16ZM197.7 397.24C200.1 396.02 203.32 395.38 206.06 394.5C215.13 389.5 222.06 383.11 225.53 376.6C227.45 372.98 228.36 369.33 230.39 365.7C232.905 361.334 236.763 357.897 241.39 355.9C242.215 355.503 243.095 355.23 244 355.09C245.114 355.001 246.235 355.13 247.3 355.47C253.48 357.07 260.14 359.06 261.45 363.05C262.55 366.4 259.5 370.33 255.35 373.56C251.47 376.56 246.26 379.71 246.17 383.02C246.17 385.12 248.32 386.77 251 387.88C257 390.32 265.37 390.56 272.35 392.17C279.33 393.78 285.21 397.86 281.93 402.61C277.69 408.72 262.67 410.61 256.09 416.26C253.54 418.44 252.51 421 249.75 423.12C245.22 426.59 236.98 427.92 230.89 427.05C225.771 426.304 220.974 424.104 217.07 420.71C213.63 417.88 210.8 414.71 206.49 412.36C202.85 410.36 198.15 408.87 195.49 406.36C192.83 403.85 192.86 399.7 197.72 397.24H197.7ZM222.38 245C221.209 243.588 220.596 241.797 220.654 239.964C220.713 238.131 221.441 236.383 222.7 235.05C227.22 229.68 238.48 226.47 247.84 226.41C257.2 226.35 265.11 228.67 272.66 230.98C283.76 234.39 295.66 238.45 297.79 245.98C297.964 246.468 298.034 246.987 297.996 247.503C297.958 248.02 297.813 248.523 297.57 248.98C296.704 250.14 295.637 251.136 294.42 251.92C287.55 257.09 280.65 262.81 279.66 268.63C278.91 272.94 281.53 276.78 285.02 280.07C286.64 281.62 288.52 283.42 287.12 285.46C286.12 286.94 283.62 288.06 282.12 289.46C278.74 292.7 281.12 297.02 276.01 299.46C271.63 301.58 265.78 299.95 264.51 297.32C263.24 294.69 264.69 291.55 264.89 288.64C265.18 284.01 262.03 279.81 256.35 277.29C252.58 275.62 247.35 273.87 248.92 270.75C249.49 269.925 250.136 269.155 250.85 268.45C254.16 264.72 253.07 260.38 248.34 258.35C242.24 256.59 237.8 254.35 232.59 251.91C228.49 250.05 224.6 247.88 222.38 245ZM115.31 285.27C114.14 284.55 113.09 283.67 113.31 282.55C113.68 280.55 117.63 279.05 119.46 277.15C122.55 273.93 118.74 270.9 114.96 268.89C111.43 267.04 107.72 265.22 105.43 262.74C101.93 258.96 102.12 253.74 105.95 249.1C109.78 244.46 117.17 240.31 125.39 238.32C134.39 236.16 145.24 237.13 147.24 241.86C147.649 243.258 147.765 244.725 147.58 246.17C147.44 253.06 152.26 259.97 163.31 261.43C170.57 262.43 179.03 260.86 187.08 259.89C201.4 258.099 215.899 258.312 230.16 260.52C236.95 261.65 244.16 264.18 242.81 268.62C241.9 271.62 237.09 274.4 232.03 275.83C226.97 277.26 221.61 277.59 216.41 277.91C213.06 279.27 206.41 281.98 204.51 284.6C202.99 286.7 203.7 288.79 203.84 290.83C203.918 292.121 203.576 293.403 202.866 294.484C202.156 295.565 201.116 296.388 199.9 296.83C196.981 297.988 193.746 298.073 190.77 297.07C188.29 296.19 186.77 294.72 184.88 293.44C180 289.99 172.88 287.65 164.45 287.35C153.45 286.94 141.32 289.97 130.45 289.35C124.43 289.07 119.09 287.6 115.31 285.27ZM94.85 358.88C92.34 357.63 89.36 355.5 88 352.8C86.64 350.1 87.84 346.71 91.1 343.93C95.1 340.47 102.52 337.17 101.68 333.64C101.35 332.21 99.61 331.2 97.95 330.26C93.81 327.973 89.68 325.67 85.56 323.35C83.1 321.97 80.49 320.35 80.83 318.12C81.09 316.44 83.05 314.72 85.39 313.37C92.39 309.37 103.54 308.28 109.72 311.01C113.72 312.79 115.52 315.76 118.72 318.01C122.54 320.64 128.22 322.15 133.78 323.61C139.34 325.07 145 326.55 148.89 329.16C152.78 331.77 154.53 335.78 151.58 339.64C149.45 342.38 145.19 344.77 143.68 347.58C142.17 350.39 142.89 353.58 138.68 355.2C135.89 356.26 132.76 355.78 129.75 355.91C124.06 356.13 118.55 358.59 112.9 360.06C107.25 361.53 98.65 360.8 94.85 358.88ZM146.73 439.46C141.67 442.12 135.62 441.07 129.48 441.98C126.87 442.37 124.37 442.09 121.77 442.23C119.17 442.37 116.02 443.23 115.05 444.71C114.826 445.041 114.707 445.431 114.707 445.83C114.707 446.229 114.826 446.619 115.05 446.95C115.92 448.47 117.75 449.64 118.8 451.09C119.85 452.54 119.93 454.55 117.72 456.03C115.06 457.81 110.59 457.86 107.5 457.15C98.19 455 95.21 448.61 94.07 442.57C92.93 436.53 92.61 429.93 86.24 425.69C80.71 422.01 71.58 420.78 63.8 418.64C56.02 416.5 48.87 412.54 50.5 406.97C51.35 404.17 54.34 401.41 57.85 398.97C63.7483 394.909 70.4374 392.138 77.48 390.84C84.93 389.52 92.85 390.35 96.48 393.5C98.88 395.58 99.27 398.41 100.38 400.95C101.062 402.53 102.173 403.888 103.587 404.869C105.001 405.85 106.661 406.415 108.38 406.5C114.38 407.16 121.56 403.98 127.85 404.2C134.47 404.41 137.55 408.13 139.77 411.5C142.86 416.18 145.93 420.86 149.03 425.5C150.42 427.63 151.85 429.8 151.86 432.25C151.87 434.7 150.3 437.57 146.73 439.46ZM151.17 412.37C148.87 402.86 140.91 394.54 128.78 388.98C122.56 386.14 115.2 383.98 110.59 380.22C105.98 376.46 104.96 370.47 111.33 365.98C117.9 361.33 129.33 360.44 137.33 362.14C145.33 363.84 150.96 367.43 157.76 370.14C159.991 371.131 162.409 371.632 164.85 371.61C171.92 371.4 177.03 365.06 184.25 364.04C185.03 363.92 187.25 363.81 187.92 364.91C189.06 366.91 185.48 371.46 182.65 374.1C179.82 376.74 175.76 378.97 172.59 381.5C169.42 384.03 167.15 387.29 168.93 389.61C171.7 393.25 182.53 392.69 184.74 396.5C186.83 400.07 179.95 404.57 179.16 408.7C178.07 414.22 188.16 418.11 184.31 423.63C182.24 426.63 176.31 428.84 171.11 429.07C166.649 429.346 162.212 428.243 158.4 425.91C156.108 424.516 154.273 422.482 153.12 420.06C152 417.61 151.81 414.94 151.17 412.37ZM291.11 443.44C282.86 449.99 269.23 453.96 256.57 455.14C246.7 456.06 235.83 455.82 227.57 460.01C225.74 460.91 224.14 462.01 222.19 462.81C218.45 464.32 214.03 464.47 210.04 464.38C204.04 464.24 197.54 463.43 195.45 460.38C193.91 458.13 195.19 455.27 195.82 452.59C196.45 449.91 196.02 446.93 192.28 445.89C188.54 444.85 183.61 446.16 179.08 446.89C173.375 447.871 167.545 447.871 161.84 446.89C156.99 445.97 152.58 443.76 153.43 440.52C154.17 437.7 158.89 435.08 163.76 434.01C168.475 433.111 173.303 432.979 178.06 433.62L179.36 433.27C184.95 430.83 189.17 427.19 190.67 423.53C191.38 421.8 191.53 420.03 192.73 418.33C193.56 417.278 194.604 416.415 195.794 415.8C196.984 415.184 198.292 414.83 199.63 414.76C200.907 414.665 202.182 414.963 203.285 415.614C204.388 416.265 205.265 417.237 205.8 418.4C208.19 422.71 210.65 427.12 215.8 430.27C220.95 433.42 229.59 435.02 238.05 432.94C243.34 431.65 247.8 429.13 252.65 427.15C260.559 423.97 268.977 422.242 277.5 422.05C282.5 421.96 287.5 422.49 291.16 423.98C300.3 427.75 299.35 436.9 291.11 443.44ZM392.72 401.44C390.79 404.54 386.99 407.33 383.01 409.92C380.122 411.914 376.95 413.462 373.6 414.51C369.319 415.614 364.857 415.828 360.49 415.14C356.931 414.674 353.476 413.612 350.27 412C347.72 410.66 345.55 408.93 341.99 408.46C336.08 407.64 327.99 411.46 327.69 415.21C327.47 418.45 332.09 420.68 331.69 423.93C331.34 426.77 327.3 429.47 323.52 431.81C320.86 433.47 317.79 435.26 314.28 435.59C312.931 435.779 311.557 435.659 310.262 435.24C308.966 434.821 307.782 434.113 306.8 433.17C305.43 431.62 305.04 429.74 304.24 428C302.68 424.69 299.44 421.84 294.97 419.84L294.03 419.66C289.82 416.8 281.03 418.08 273.8 418.13C272.28 418.13 270.54 417.98 270.26 417.13C270.12 416.73 270.39 416.28 270.69 415.87C274.52 410.87 287.11 408.52 289.56 403.46C290.28 402 289.98 400.51 291.16 399.11C292.92 397 297.29 395.87 301.06 395.52C304.83 395.17 308.55 395.31 312.29 394.52C317.53 393.35 321.97 390.21 322.64 387.18C323.64 382.83 317.69 379.26 320.69 374.94C322.53 372.3 327.29 370.35 331.9 369.38C336.51 368.41 341.17 368.2 345.82 367.59C348.775 367.062 351.761 366.728 354.76 366.59C360.7 366.52 365.12 368.66 368.87 370.84C375.945 374.887 382.454 379.849 388.23 385.6C392.66 390.19 396.35 395.65 392.72 401.46V401.44Z" fill="#D9F4FD"/>
</g>
<path d="M398.53 81.11C401.293 81.4501 403.892 82.6021 406 84.42C406.653 84.9926 407.243 85.6329 407.76 86.33C408.43 87.23 409.1 88.33 410.21 88.54C410.768 88.6166 411.335 88.5826 411.88 88.44C415.97 87.7886 420.155 88.7027 423.6 91C425.22 92.07 426.81 93.5 428.75 93.49C429.635 93.4173 430.51 93.2497 431.36 92.99C433.386 92.5631 435.496 92.8198 437.36 93.72C438.377 94.3497 439.464 94.8565 440.6 95.23C442.92 95.74 445.23 94.23 447.6 94.23C450.46 94.23 452.81 96.56 455.6 97.15C457.7 97.6 459.95 97.08 462 97.74C462.298 97.8079 462.577 97.9408 462.817 98.1293C463.058 98.3177 463.253 98.557 463.39 98.83C463.487 99.2321 463.448 99.6549 463.28 100.033C463.111 100.411 462.823 100.722 462.46 100.92C459.52 102.92 455.63 99.76 452.14 100.33C449.79 100.71 448.01 102.71 445.71 103.33C443.19 104.03 440.54 102.99 437.93 102.85C433.5 102.63 429.24 105.03 424.8 104.79C421.88 104.62 419.11 103.32 416.18 103.27C411.64 103.18 407.36 106.12 402.84 105.65C401.401 105.402 399.979 105.068 398.58 104.65C397.708 104.375 396.783 104.306 395.88 104.45C395.1 104.64 394.36 104.8 393.57 104.93C391.48 105.27 389.57 106.28 387.4 106.37C383.31 106.53 379.79 103.2 375.7 102.92C373.01 102.74 370.36 103.92 367.7 103.7C367.422 103.678 367.145 103.641 366.87 103.59C366.18 103.47 365.55 103.21 364.87 103.04C364.534 103.014 364.196 103.044 363.87 103.13C363.51 103.13 363.15 103.19 362.79 103.2C361.353 103.241 359.917 103.07 358.53 102.69C356.64 102.16 354.84 101.25 352.88 101.17C350.92 101.09 348.72 101.97 346.67 101.61C346.149 101.561 345.668 101.31 345.33 100.91C345.252 100.81 345.195 100.694 345.163 100.571C345.132 100.448 345.125 100.32 345.145 100.195C345.165 100.069 345.21 99.9487 345.278 99.8413C345.346 99.7339 345.435 99.6416 345.54 99.57C345.766 99.4816 346.009 99.4474 346.25 99.47C347.229 99.45 348.183 99.163 349.01 98.64C349.59 98.27 350.09 97.8 350.69 97.48C352.69 96.41 355.29 97.41 357.51 96.79C359 96.38 360.19 95.28 361.59 94.62C362.194 94.3468 362.829 94.1454 363.48 94.02C364.805 93.806 366.155 93.806 367.48 94.02C368.16 94.11 368.83 94.23 369.48 94.37L370.48 94.59C370.648 94.6499 370.823 94.6902 371 94.71C371.326 94.678 371.638 94.5569 371.9 94.36C372.536 93.8173 373.068 93.1633 373.47 92.43C374.051 91.6391 374.802 90.9881 375.667 90.5244C376.532 90.0608 377.49 89.7962 378.47 89.75C379.602 89.8149 380.738 89.8149 381.87 89.75C382.359 89.6534 382.821 89.4523 383.225 89.1607C383.629 88.869 383.965 88.4935 384.21 88.06C385.58 86.06 387.1 84.06 389.34 83.06C389.82 82.8752 390.279 82.6406 390.71 82.36C391.022 82.1564 391.358 81.9919 391.71 81.87C392.379 81.6026 393.068 81.3886 393.77 81.23C395.187 80.9335 396.64 80.856 398.08 81L398.53 81.11Z" fill="#F0F0F0"/>
<path d="M75.13 87.5599C77.6367 87.8685 79.9958 88.9124 81.91 90.5599C82.5017 91.0797 83.0379 91.6595 83.51 92.2899C84.11 93.1099 84.73 94.0899 85.73 94.2899C86.2377 94.3595 86.7541 94.3289 87.25 94.1999C90.9508 93.5985 94.7422 94.4125 97.87 96.4799C99.34 97.4799 100.78 98.7499 102.54 98.7499C103.344 98.6808 104.139 98.5266 104.91 98.2899C106.753 97.8987 108.673 98.1309 110.37 98.9499C111.289 99.5207 112.273 99.9806 113.3 100.32C115.41 100.78 117.5 99.3999 119.66 99.4399C122.26 99.4399 124.39 101.55 126.94 102.1C128.46 102.42 130.04 102.19 131.58 102.38C131.97 102.38 132.34 102.55 132.73 102.62C132.96 102.67 133.19 102.62 133.41 102.62C133.54 102.658 133.66 102.726 133.759 102.819C133.858 102.912 133.933 103.027 133.979 103.155C134.025 103.283 134.04 103.42 134.022 103.554C134.005 103.689 133.956 103.818 133.88 103.93C133.708 104.104 133.495 104.231 133.26 104.3C131.168 105.129 128.93 105.53 126.68 105.48C125.101 105.293 123.5 105.471 122 106C121.55 106.2 121.09 106.37 120.63 106.56C119.756 107.021 118.854 107.429 117.93 107.78C115.64 108.41 113.24 107.47 110.87 107.35C106.87 107.14 102.98 109.35 98.95 109.1C96.31 108.95 93.79 107.77 91.14 107.72C87.01 107.65 83.14 110.31 79.03 109.88C77.7367 109.665 76.4577 109.371 75.2 109C74.41 108.743 73.5702 108.678 72.75 108.81C72.05 108.98 71.38 109.13 70.66 109.25C68.77 109.56 67 110.48 65.06 110.55C61.35 110.7 58.15 107.68 54.44 107.43C53.6813 107.385 52.9198 107.425 52.17 107.55C51.5 107.65 50.83 107.86 50.17 107.95C49.8027 107.932 49.4395 107.865 49.09 107.75C48.69 107.68 48.28 107.64 47.87 107.61C47.044 107.565 46.2161 107.565 45.39 107.61C43.748 107.785 42.092 107.785 40.45 107.61C38.83 107.37 37.28 106.72 35.64 106.61C33.03 106.41 30.13 107.5 27.95 106.05C27.72 105.89 27.48 105.62 27.59 105.37C27.6681 105.238 27.7877 105.136 27.93 105.08C30.37 103.86 32.93 102.61 35.61 102.46C36.9954 102.552 38.3869 102.441 39.74 102.13C40.5203 101.771 41.2754 101.36 42 100.9C43.3002 100.276 44.7182 99.9348 46.16 99.8999C46.89 99.8999 47.61 99.8399 48.34 99.8999C49.34 99.8999 50.07 100.3 51.02 99.6799C51.6042 99.1894 52.0896 98.5921 52.45 97.9199C52.9718 97.1872 53.6516 96.5812 54.4392 96.1467C55.2268 95.7123 56.102 95.4604 57 95.4099C58.0292 95.4698 59.0609 95.4698 60.09 95.4099C60.5326 95.3221 60.951 95.14 61.3168 94.876C61.6827 94.612 61.9873 94.2722 62.21 93.8799C63.46 92.0999 64.84 90.2799 66.87 89.3499C67.3048 89.1809 67.7205 88.9664 68.11 88.7099C68.3913 88.5276 68.6934 88.3798 69.01 88.2699C69.6149 88.0213 70.2407 87.8272 70.88 87.6899C72.1649 87.4201 73.4836 87.3492 74.79 87.4799L75.13 87.5599Z" fill="#F0F0F0"/>
<path d="M118.27 66.4801C127.847 66.4801 135.61 58.7167 135.61 49.14C135.61 39.5634 127.847 31.8 118.27 31.8C108.693 31.8 100.93 39.5634 100.93 49.14C100.93 58.7167 108.693 66.4801 118.27 66.4801Z" fill="#FFBDA7"/>
<path opacity="0.65" d="M385.76 428.46C344.38 450.82 281 449.38 214.81 433C146.12 416 156.1 406.9 173.9 404.3C191.7 401.7 211.33 394.94 192.36 390.75C157.43 383.03 127.8 375.15 114.71 365.64C96.79 352.64 108.96 349.85 121.84 346.64C134.72 343.43 131.21 339.51 113.03 330.75C94.85 321.99 59.47 303.2 69.54 295.8C74.35 292.27 90.83 295.28 101.82 294.11C112.81 292.94 101.57 286.11 82.82 276.11C61.1 264.53 60.06 256 64.56 254.67C76.19 251.17 97.42 257.86 118.98 262.94C142.17 268.41 155.98 273.62 137.24 258.06C120.95 244.55 146.6 247.43 171.85 259.3C195.33 270.3 190.57 258.09 187.92 251.44C185.27 244.79 200.07 239.83 282.3 289.85C347.12 329.28 426 406.73 385.76 428.46Z" fill="#D9F4FD"/>
<path opacity="0.85" d="M330.64 367.16C303 351 193.52 295 167.06 284.91C140.6 274.82 113.9 266.84 100.49 264.91C88.86 263.21 86.59 268.25 91.37 271.67C103 280.02 126.37 291.67 120.06 296.85C113.75 302.03 98.17 301.85 128.84 319.85C161.2 338.8 173.77 349.85 161.25 350.98C140.34 352.86 140.55 357.5 155.3 365.76C177.3 378.11 206.88 383.87 219.89 392.05C232.9 400.23 203.89 402.97 221.79 414.46C236.65 424.01 276.6 433.02 334.17 432.46C410.07 431.77 405 410.49 330.64 367.16Z" fill="#D9F4FD"/>
<path opacity="0.15" d="M330.64 367.16C303 351 193.52 295 167.06 284.91C140.6 274.82 113.9 266.84 100.49 264.91C88.86 263.21 86.59 268.25 91.37 271.67C103 280.02 126.37 291.67 120.06 296.85C113.75 302.03 98.17 301.85 128.84 319.85C161.2 338.8 173.77 349.85 161.25 350.98C140.34 352.86 140.55 357.5 155.3 365.76C177.3 378.11 206.88 383.87 219.89 392.05C232.9 400.23 203.89 402.97 221.79 414.46C236.65 424.01 276.6 433.02 334.17 432.46C410.07 431.77 405 410.49 330.64 367.16Z" fill="white"/>
<path opacity="0.3" d="M113.46 325.11C117.46 328.4 124.05 333.11 134.95 339.41C141.25 343.05 173.24 363 203.95 380.73C226.9 393.97 233.95 398.43 263.21 414.13C279 422.61 302.85 431.81 341.89 436.32C367.14 439.24 390.6 435.25 401.75 428.81C412.9 422.37 419.81 408.81 414.75 394.25C406.94 371.71 391 357.94 376.31 348.82C349.12 331.95 341.4 327.82 318.45 314.61C287.76 296.89 253.2 278.42 246.9 274.78C238.94 270.073 230.659 265.93 222.12 262.38C216.4 260.07 208.61 259.77 201.38 261.52C201.38 261.52 176.93 265.59 164.5 272.77L131.5 291.84C119 299 112 313.13 112 313.13C109.38 318.06 109.47 321.8 113.46 325.11Z" fill="black"/>
<path d="M123 293.08C123 293.08 132.62 313.69 135.74 321.83C137.2 325.66 138.99 327.26 146.74 332.69L184.38 359.11C188 361.2 199.13 370.68 199.13 370.68C204.7 376 209.82 378.51 221.13 385.13C233.86 392.59 257.47 408.35 299.78 421.92C355.93 439.92 414.91 417.15 426.9 396.98L123 293.08Z" fill="#455A64"/>
<path d="M166.23 341.54L144.67 326.54C144.132 326.105 143.718 325.536 143.47 324.89L140.21 316.71C140.16 316.21 140.4 315.99 140.74 316.21L165.32 331.27C168.383 333.326 171.137 335.807 173.5 338.64C175.12 340.54 176.5 342.46 176.62 343.47C176.74 344.48 175.48 344.7 174.02 344.59C171.212 344.229 168.537 343.181 166.23 341.54Z" fill="#263238"/>
<path d="M121.65 298.59C125.8 302.02 132.65 306.94 144.06 313.5C150.64 317.3 183.98 338.1 215.99 356.58C239.92 370.4 247.3 375.05 277.78 391.42C294.25 400.26 319.12 409.86 359.83 414.56C386.16 417.56 410.62 413.43 422.25 406.72C433.88 400.01 441.08 385.89 435.82 370.72C427.68 347.22 411.05 332.86 395.73 323.36C367.38 305.76 359.33 301.5 335.4 287.68C303.4 269.2 267.4 249.95 260.78 246.15C252.497 241.233 243.883 236.896 235 233.17C229 230.77 220.91 230.46 213.37 232.28C213.37 232.28 187.87 236.53 174.92 244.01L140.41 263.9C127.41 271.38 120.11 286.1 120.11 286.1C117.4 291.24 117.49 295.14 121.65 298.59ZM123.85 288.82L124.08 288.51L124.25 288.17C124.32 288.03 131.11 274.61 142.73 267.91L177.18 248C189.25 241 213.84 236.88 214.08 236.84H214.25H214.41C217.268 236.169 220.194 235.834 223.13 235.84C226.572 235.778 229.995 236.365 233.22 237.57C241.917 241.201 250.354 245.428 258.47 250.22C260.57 251.43 265.47 254.12 272.31 257.85C286.83 265.79 311.12 279.07 333.09 291.75C338.09 294.63 342.37 297.09 346.31 299.35C361.12 307.85 370.91 313.46 393.31 327.35C412.67 339.35 425.15 354.07 431.46 372.3C436.22 386.04 429.11 397.53 419.95 402.82C411.17 407.89 394.87 411.04 377.43 411.04C371.732 411.032 366.04 410.698 360.38 410.04C327.58 406.25 301.29 398.85 280 387.42C255.94 374.5 246.23 368.85 231.51 360.3L218.33 352.65C196.33 339.96 173.33 325.93 159.59 317.55C153.15 313.62 148.49 310.78 146.39 309.55C136.98 304.12 129.66 299.25 124.62 295.08C122.33 293.14 122.1 291.23 123.85 288.82Z" fill="#FAFAFA"/>
<path d="M377.41 410.94C394.85 410.94 411.15 407.79 419.93 402.72C429.09 397.43 436.2 385.94 431.44 372.2C425.13 353.97 412.65 339.26 393.29 327.25C370.91 313.36 361.12 307.75 346.29 299.25C342.35 296.99 338.05 294.53 333.07 291.65C311.07 278.97 286.81 265.65 272.29 257.75C265.47 254.02 260.55 251.33 258.45 250.12C250.334 245.328 241.897 241.101 233.2 237.47C229.975 236.265 226.552 235.678 223.11 235.74C220.174 235.734 217.248 236.069 214.39 236.74H214.23H214.06C213.82 236.74 189.23 240.94 177.16 247.9L142.71 267.8C131.09 274.5 124.3 287.92 124.23 288.06L124.06 288.4L123.83 288.71C122.08 291.12 122.31 293.03 124.58 294.91C129.58 299.08 136.94 303.91 146.35 309.38C148.45 310.59 153.11 313.43 159.55 317.38C173.3 325.76 196.3 339.79 218.29 352.48L231.47 360.13C246.19 368.68 255.9 374.33 279.96 387.25C301.25 398.68 327.54 406.08 360.34 409.87C366.005 410.552 371.704 410.91 377.41 410.94Z" fill="#E0E0E0"/>
<path d="M132.21 289.27C132.231 289.128 132.261 288.988 132.3 288.85V288.69C132.3 288.51 132.41 288.31 132.48 288.1C132.55 287.89 132.55 287.9 132.6 287.79C134.49 283.07 142.52 273.97 146.44 270.6C147.607 269.55 148.873 268.615 150.22 267.81L184.68 247.92C192.09 243.64 209.34 239.77 216.54 238.57L217.23 238.45L217.92 238.28C219.617 237.875 221.355 237.667 223.1 237.66C224.616 237.611 226.129 237.828 227.57 238.3C235.639 241.657 243.468 245.567 251 250C253.27 251.31 258.25 254 265.15 257.8C279.59 265.69 303.76 278.9 325.62 291.53L338.87 299.15C353.54 307.56 363.23 313.15 385.41 326.88C392.309 331.059 398.599 336.171 404.1 342.07C404.1 342.07 415.37 353.71 420.77 364.87C422.386 367.953 423.769 371.152 424.91 374.44C428.38 384.44 423.18 392.81 416.49 396.67C410.66 400.04 396.94 403.97 377.49 403.97C372.02 403.969 366.554 403.652 361.12 403.02C329.26 399.33 303.82 392.19 283.34 381.19C259.39 368.33 249.71 362.7 235.07 354.19L221.86 346.53C199.95 333.88 176.99 319.88 163.27 311.53C156.78 307.53 152.09 304.72 149.93 303.47C142.93 299.47 137.93 296.17 134.31 293.61C133.624 293.129 133.078 292.475 132.727 291.714C132.376 290.954 132.232 290.114 132.31 289.28L132.21 289.27Z" fill="#D9F4FD"/>
<path opacity="0.15" d="M338.82 299.18C353.49 307.59 363.18 313.18 385.36 326.91C392.259 331.089 398.549 336.201 404.05 342.1C404.05 342.1 415.32 353.74 420.72 364.9C422.336 367.983 423.719 371.182 424.86 374.47C426.047 377.654 426.301 381.11 425.592 384.432C424.884 387.755 423.242 390.807 420.86 393.23C418.26 375.23 395.07 355.23 395.07 355.23L285.18 299.23L311.44 283.44C316.18 286.12 320.92 288.83 325.57 291.51L338.82 299.18Z" fill="white"/>
<path d="M381.78 383C397.89 383.35 408.36 380.95 413.19 377.36C415.271 375.918 416.801 373.811 417.527 371.385C418.254 368.96 418.135 366.359 417.19 364.01C412.05 349.17 401.62 337.01 385.32 326.92C363.14 313.15 353.45 307.6 338.78 299.19L325.53 291.57C303.67 278.94 279.53 265.73 265.06 257.84C258.16 254.07 253.18 251.35 250.91 250.04C243.418 245.598 235.63 241.675 227.6 238.3C226.159 237.828 224.646 237.611 223.13 237.66C221.385 237.667 219.647 237.875 217.95 238.28L217.26 238.45L216.57 238.57C209.37 239.77 192.12 243.64 184.71 247.92L150.25 267.81C146.914 269.915 144.003 272.629 141.67 275.81C145.18 278.16 149.28 280.7 153.9 283.36C156.16 284.67 160.9 287.55 167.4 291.53C181.08 299.87 203.98 313.83 225.83 326.44L239.06 334.12C253.63 342.59 263.26 348.19 287.06 360.98C306.63 371.49 331.12 378.33 361.94 381.9C367.1 382.47 376.67 383 381.78 383Z" fill="#F0F0F0"/>
<path d="M239.06 334.1C272.87 331.18 330.99 365 361.06 374.64C391.13 384.28 434.19 382.83 411.16 350.54C401.42 336.88 377.76 317.84 377.76 317.84C377.76 317.84 394.31 336.52 381.29 342.94C366.47 350.01 345.09 342.22 315.65 336.08C286.21 329.94 264.54 328.86 239.06 334.1Z" fill="#D9F4FD"/>
<path d="M179.06 251.17C180.32 267.77 200.98 291.32 205.75 297.08C210.52 302.84 204.69 303.81 188.75 293.08C172.81 282.35 157.39 263.66 157.39 263.66L179.06 251.17Z" fill="#263238"/>
<path d="M186.27 247.01L157.43 263.66L173.19 247.59L186.27 247.01Z" fill="#D9F4FD"/>
<path opacity="0.5" d="M173.19 247.59L186.27 247.01L157.43 263.66" fill="black"/>
<path d="M316.09 321.94L300.67 330.85C299.841 331.328 298.923 331.633 297.973 331.748C297.023 331.864 296.06 331.786 295.14 331.52L270.58 324.43C269.674 324.17 268.726 324.091 267.79 324.2L237.09 327.74C235.885 327.88 234.664 327.708 233.544 327.243C232.424 326.777 231.441 326.033 230.69 325.08L215.12 305.3V292.81L186.46 255.57C186.343 255.413 186.193 255.283 186.02 255.19L176.35 249.61C176.087 249.455 175.784 249.385 175.48 249.408C175.176 249.431 174.886 249.547 174.65 249.74L157.43 263.66L171.68 247.2C171.791 247.072 171.923 246.964 172.07 246.88L207.56 226.36C207.794 226.225 208.06 226.154 208.33 226.154C208.6 226.154 208.866 226.225 209.1 226.36L222.32 234.47L262 265.72V278.21L334.13 295.12L316.09 321.94Z" fill="#D9F4FD"/>
<path opacity="0.1" d="M316.09 321.94L300.67 330.85C299.841 331.328 298.923 331.633 297.973 331.748C297.023 331.864 296.06 331.786 295.14 331.52L270.58 324.43C269.674 324.17 268.726 324.091 267.79 324.2L237.09 327.74C235.885 327.88 234.664 327.708 233.544 327.243C232.424 326.777 231.441 326.033 230.69 325.08L215.12 305.3V292.81L186.46 255.57C186.343 255.413 186.193 255.283 186.02 255.19L176.35 249.61C176.087 249.455 175.784 249.385 175.48 249.408C175.176 249.431 174.886 249.547 174.65 249.74L157.43 263.66L171.68 247.2C171.791 247.072 171.923 246.964 172.07 246.88L207.56 226.36C207.794 226.225 208.06 226.154 208.33 226.154C208.6 226.154 208.866 226.225 209.1 226.36L222.32 234.47L262 265.72V278.21L334.13 295.12L316.09 321.94Z" fill="black"/>
<path opacity="0.3" d="M209.27 283.7L216.59 292.48C216.59 292.48 216.46 305.16 216.59 304.76C216.72 304.36 217.59 291.41 217.59 291.41L209.27 283.7Z" fill="white"/>
<path opacity="0.1" d="M175.28 245L204.46 228.12C205.632 227.443 206.965 227.095 208.319 227.113C209.672 227.13 210.996 227.513 212.15 228.22L222.32 234.46L262 265.72V278.21L321.77 292.21L300.77 312.14C300.77 312.14 272.15 315.28 265.12 313.36C258.09 311.44 237.32 298.87 233.62 296.45C217.52 285.93 209.2 279.45 201.8 271.07C192.1 260 188.7 256.73 188.7 252.21C188.7 249.77 183.3 245.45 175.28 245Z" fill="black"/>
<path opacity="0.3" d="M258.75 321.74C247.57 324.03 238.53 325.74 236.6 326.11C234.67 326.48 232.99 326.38 230.89 323.51C228.79 320.64 221.79 311.8 221.79 311.8C221.79 311.8 229.79 320.62 232.25 323.03C234.71 325.44 236.37 325.11 241.74 324.13C247.11 323.15 258.75 321.74 258.75 321.74Z" fill="white"/>
<path d="M226.58 222.38L197.35 263.15C197.35 263.15 187.69 240.66 184 236.3C180.31 231.94 187.34 229 194.41 224.13C207.36 215.21 220.84 214.51 226.58 222.38Z" fill="#E0E0E0"/>
<path d="M226.58 222.38L197.35 263.15C197.35 263.15 187.69 240.66 184 236.3C180.31 231.94 187.34 229 194.41 224.13C207.36 215.21 220.84 214.51 226.58 222.38Z" fill="#E0E0E0"/>
<path d="M311.28 285.14C311.279 283.195 310.769 281.283 309.798 279.597C308.828 277.91 307.432 276.508 305.75 275.53C295.27 269.44 272.53 256.14 260.96 248.73C250.581 242.675 241.009 235.334 232.47 226.88C222.6 218.27 209.81 223.49 207.37 224.64C203.52 226.46 191.7 233.71 190.43 237.98C189.63 241.24 189.95 243.18 189.99 246.21C189.883 250.924 191.37 255.536 194.21 259.3C201.507 268.463 209.938 276.661 219.3 283.7C230.88 292.18 253.59 304.93 264.08 310.7C265.769 311.629 267.669 312.106 269.596 312.085C271.523 312.064 273.412 311.546 275.08 310.58L307.43 291.85C308.608 291.17 309.587 290.192 310.268 289.014C310.949 287.837 311.308 286.501 311.31 285.14H311.28Z" fill="#37474F"/>
<path d="M275.05 310.58L307.4 291.85C308.578 291.17 309.557 290.192 310.238 289.014C310.919 287.837 311.278 286.501 311.28 285.14C311.279 283.195 310.769 281.283 309.798 279.597C308.828 277.91 307.432 276.508 305.75 275.53L300.75 272.63L292.91 276.63L265.91 298.94C265.45 299.39 268.57 308.94 269.61 312.09C271.523 312.06 273.395 311.54 275.05 310.58Z" fill="#263238"/>
<path d="M232.81 226.33C240.31 233.47 244.81 238.41 260.96 248.73C269.96 254.49 285.69 263.8 297.17 270.53L305.73 275.53C305.95 275.66 306.16 275.81 306.37 275.96C306.828 276.31 307.192 276.767 307.431 277.291C307.669 277.815 307.775 278.389 307.739 278.964C307.702 279.539 307.524 280.095 307.221 280.585C306.918 281.074 306.498 281.481 306 281.77L284.4 294.23C280.61 296.42 267.2 301.58 263.4 299.48C249.4 291.83 217.93 272.95 206.61 262.13C193.25 249.35 189.9 244.21 190.44 237.98C190.81 233.74 201.71 227.15 208.24 224.14C215.84 220.63 225.31 219.19 232.81 226.33Z" fill="#455A64"/>
<path d="M178.59 233.21C178.59 237.39 178.59 241.83 180.3 243.37C184.04 246.66 188.97 249.21 191.89 256.16L194.21 259.3C194.21 259.3 194.62 255.53 190.87 248.56C187.12 241.59 178.59 233.21 178.59 233.21Z" fill="#F0F0F0"/>
<path opacity="0.1" d="M178.59 233.21C178.59 237.39 178.59 241.83 180.3 243.37C184.04 246.66 188.97 249.21 191.89 256.16L194.21 259.3C194.21 259.3 194.62 255.53 190.87 248.56C187.12 241.59 178.59 233.21 178.59 233.21Z" fill="black"/>
<path d="M197.35 263.15C194.945 254.436 191.592 246.012 187.35 238.03C185 233.89 198.56 224.86 206.07 221.41C213.58 217.96 220.59 216.49 226.55 222.41C227.234 222.658 227.902 222.948 228.55 223.28C225.581 219.886 222.002 217.078 218 215C211.35 211.56 207.76 212.07 196.76 217.31C185.76 222.55 175.3 230.44 179.54 235.73C183.78 241.02 192.88 253.24 194.19 259.29L197.35 263.15Z" fill="#F0F0F0"/>
<path opacity="0.2" d="M262.73 302.66C264.08 310.66 263.37 312.75 252.91 323.34C242.45 333.93 239.73 336.26 239.68 340.17C239.63 344.08 246.38 354.83 250.53 358.98C254.68 363.13 247.03 366.06 242.58 366.63C240.087 366.908 237.565 366.51 235.278 365.479C232.991 364.448 231.023 362.822 229.58 360.77C226.64 356.32 226.99 355.62 224.27 352.43C221.08 348.68 216.78 348.62 216.16 345.1C215.54 341.58 218.31 338.8 222.23 336.37C229.58 327.85 229.62 316.09 239.08 308.13C248.92 299.82 262.73 302.66 262.73 302.66Z" fill="black"/>
<path opacity="0.2" d="M211 249.72C213.95 256.72 213.78 262.57 211 270.57C208.22 278.57 199.46 301.24 198.75 308.13C198.04 315.02 197.36 324.47 202.4 331.33C203.74 335.42 207.84 339.21 200.15 340.17C197.533 340.605 194.846 340.3 192.392 339.292C189.939 338.283 187.815 336.61 186.26 334.46C184.16 331.75 183.95 329.86 183.37 324.6C183.05 321.76 182.66 319.87 180.21 317.99C177.76 316.11 176 312.57 179.53 309.04C183.06 305.51 186.25 304.56 185.95 292.72C185.65 280.88 211 249.72 211 249.72Z" fill="black"/>
<path d="M210.28 258.36C213.01 247.04 207.75 238.12 198.06 210.05C194.39 199.41 210.48 196.6 210.64 182.53C210.64 182.53 203.84 184.36 191.75 182.28C179.66 180.2 176.75 184.49 176.75 184.49C167.38 192.67 157.52 204.1 170.64 228.24C176.8 239.58 188.27 256.72 188.27 256.72C185.14 263.72 183.94 267.85 184.32 282.02C184.55 290.89 185.25 289.79 184.51 295.44C183.77 301.09 183.75 302.01 180.84 305.1C178.65 307.43 177.1 310.7 178.52 314.1C179.32 316.01 181.1 317.1 182.39 318.44C186.66 322.8 183.03 328.87 188.61 334.88C193.74 340.41 209.61 340.25 204.02 333.26C197.19 326.2 195.29 311.87 197.11 303.6C198.93 295.33 202.68 287.6 205.89 275.96C207.77 268.96 209.19 263.27 210.3 258.38" fill="#C8856A"/>
<path d="M182.24 180.53C182.24 180.53 173.76 185.53 168.92 192.45C165.15 197.83 163.92 203.88 164.28 207.21C166.72 204.5 172.7 202.76 178.37 202.71C190.37 202.61 198.88 209.43 199.94 215.66C204.834 213.163 209.145 209.659 212.59 205.38C214.927 202.266 216.528 198.662 217.27 194.84C217.67 192.91 216.55 191.71 216.5 190.84L182.24 180.53Z" fill="#37474F"/>
<path d="M242.47 221.24C236.07 212.82 217.47 194.94 217.47 194.94L215.25 196.09L200.14 215.76L201.57 220.03C201.57 220.03 224.75 239.14 226.06 240.33C225.55 245.41 226.06 249.99 229.06 260.2C231.4 268.1 231.77 266.94 232.46 272.2C233.15 277.46 233.34 278.28 231.46 281.75C230.06 284.36 229.46 287.67 231.54 290.36C232.71 291.88 234.54 292.45 236.05 293.36C240.92 296.25 239.13 302.56 245.57 306.62C251.5 310.35 265.73 306.39 259.01 301.47C251.18 296.77 246.01 284.38 245.7 276.47C245.39 268.56 246.7 260.76 246.95 249.58C247.53 230.22 248.87 229.65 242.47 221.24Z" fill="#C8856A"/>
<path d="M203.86 217.9C203.86 217.9 212.31 210.71 214.26 201.03L211.64 201.98L200.16 215.76L201.59 220.03C201.59 220.03 221.33 236.3 226.08 240.33C225.66 240.07 203.86 217.9 203.86 217.9Z" fill="#AF6152"/>
<path d="M199.65 114.15C198.099 114.244 196.555 114.441 195.03 114.74C194.486 114.807 193.935 114.676 193.48 114.37C190.27 112.7 189.35 108.78 186.83 106.37C185.477 105.165 183.767 104.437 181.961 104.296C180.155 104.155 178.353 104.61 176.83 105.59C173.38 96.98 161.69 101.68 164.38 110.35C156.51 114.54 159.69 124.82 167.15 127.65C166.733 129.347 166.748 131.122 167.191 132.812C167.635 134.503 168.494 136.056 169.69 137.33C174.48 142.67 183.3 141.33 187.12 135.94C188.91 138.11 195.76 137.67 197.12 132.34C197.56 130.6 203.73 126.5 205.03 125.93L199.65 114.15Z" fill="#263238"/>
<path d="M215.83 139C222.21 138.75 225.55 140.47 229.23 147.87C232.91 155.27 239 170 239 170C245.46 174.62 251.38 180.21 258.37 184C260.57 185.1 263.08 184.57 265.37 185.07C268.37 186.27 270.67 188.71 273.1 190.72C273.73 191.29 275.33 192.3 274.37 192.83C273.61 193.24 272.58 192.54 271.83 192.97C271.53 193.15 271.33 193.48 271.04 193.69C270.19 194.31 269.04 193.69 267.98 193.69C267.4 193.69 266.83 193.9 266.25 193.86C265.295 193.612 264.379 193.232 263.53 192.73C261.53 191.2 259.43 188.88 256.76 188.8C254.5 189.12 248.35 190.15 248.35 190.15C248.35 190.15 233.41 183.44 230.75 181.73C228.09 180.02 227.24 178.73 222.87 169.73C218.31 160.33 216.42 156.29 216.42 156.29L215.83 139Z" fill="#C8856A"/>
<path d="M189.33 143.89C184.9 145.89 182.42 148.89 179.33 164.52C177.893 172.006 175.587 179.299 172.46 186.25C172.126 186.966 171.984 187.757 172.049 188.544C172.114 189.332 172.383 190.089 172.83 190.74C182.48 204.86 211.11 203.84 217.47 194.94C219.476 187.653 221.965 180.507 224.92 173.55C227.73 166.73 229.2 163.5 227.32 156.81C226.04 152.26 223.26 147.53 220.42 142.28C219.42 140.49 217.93 138.56 212.52 139.15C212.54 139.15 196.16 140.83 189.33 143.89Z" fill="#D9F4FD"/>
<path opacity="0.6" d="M189.33 143.89C184.9 145.89 182.42 148.89 179.33 164.52C177.893 172.006 175.587 179.299 172.46 186.25C172.126 186.966 171.984 187.757 172.049 188.544C172.114 189.332 172.383 190.089 172.83 190.74C182.48 204.86 211.11 203.84 217.47 194.94C219.476 187.653 221.965 180.507 224.92 173.55C227.73 166.73 229.2 163.5 227.32 156.81C226.04 152.26 223.26 147.53 220.42 142.28C219.42 140.49 217.93 138.56 212.52 139.15C212.54 139.15 196.16 140.83 189.33 143.89Z" fill="white"/>
<path opacity="0.3" d="M214.17 146.4C212.64 142.4 211 150.4 211 150.4L213 161.49C214.68 167.49 214.86 171.88 211 184.15C208.19 193.15 206.34 198.62 205.55 200.91C206.07 200.82 206.55 200.71 207.08 200.6C208.14 197.35 210.62 189.71 212.26 184.41C214.4 177.51 216.97 169.47 214.26 161.68C216.38 156.88 215.7 150.45 214.17 146.4Z" fill="#D9F4FD"/>
<path d="M178.59 167.63C181.02 173.47 188.21 181.55 204.29 180.63C221.07 179.73 224.29 175.01 224.29 175.01L222.38 179.91C222.38 179.91 217.64 184.32 204.04 184.64C190.44 184.96 180.32 179.4 177.27 172.58L178.59 167.63Z" fill="#37474F"/>
<path d="M175.9 177.55C178.33 183.39 188.09 190 201 190C217.79 190 220.66 184.63 220.66 184.63L219.11 189.28C219.11 189.28 214.37 194.28 200.77 194C188.52 193.71 177.26 188.3 174.12 182.21L175.9 177.55Z" fill="#37474F"/>
<path d="M231.08 108.47C229.66 105.9 227.85 105.3 226.47 105.22C224.89 102.63 218.8 99.7299 215.89 99.2899C204.65 97.6299 200.59 103.1 199.82 105.21C194.32 105.57 187.57 115.41 192.44 126.39C194.55 131.15 198.71 133.74 199.73 136.39L206.18 137.93C206.576 135.569 207.606 133.361 209.159 131.54C210.713 129.719 212.731 128.354 215 127.59C222.83 124.96 227.23 123.3 228.48 121.78C230.361 120.187 231.643 118 232.116 115.581C232.588 113.162 232.223 110.654 231.08 108.47Z" fill="#263238"/>
<path d="M228.35 115.77C228.537 117.38 228.449 119.01 228.09 120.59C227.75 122.37 228.68 123.81 228.49 127.43C228.05 135.8 223.73 139.57 221.19 140.43C219.398 140.951 217.513 141.071 215.67 140.78L213.72 147.78C213.72 147.78 215.67 155.23 212.99 161.42C210.81 157.48 205.63 152.02 202.99 148.94C199.21 144.61 198.55 141.81 198.55 141.81L201 130.53C201 130.53 198.74 133.53 195.84 130.21C193.57 127.59 192.78 123.44 195.29 121.15C195.74 120.67 196.309 120.318 196.94 120.13C197.57 119.941 198.239 119.923 198.878 120.076C199.518 120.229 200.106 120.549 200.582 121.003C201.058 121.457 201.406 122.028 201.59 122.66C202.53 125.09 204.83 125.28 204.96 122.66C205.09 120.04 205.07 119.49 205.07 119.49C208.9 118.29 208.07 114.06 210.98 111.96C212.98 110.47 216.24 109.19 219.9 112.65C222.36 109.85 227.11 109.43 228.35 115.77Z" fill="#C8856A"/>
<path d="M215.67 140.78C212.969 140.427 210.427 139.307 208.344 137.552C206.261 135.797 204.726 133.481 203.92 130.88C204.064 133.445 204.981 135.906 206.55 137.94C209.55 141.58 215.15 142.65 215.15 142.65L215.67 140.78Z" fill="#AF6152"/>
<path d="M214.81 130.49L220.18 132.49C220.075 132.855 219.896 133.195 219.655 133.489C219.413 133.782 219.114 134.022 218.775 134.195C218.436 134.367 218.066 134.469 217.686 134.492C217.307 134.515 216.927 134.46 216.57 134.33C215.848 134.027 215.267 133.464 214.941 132.753C214.615 132.042 214.568 131.234 214.81 130.49Z" fill="#AF6152"/>
<path d="M214.79 132.43C214.918 132.869 215.145 133.273 215.454 133.611C215.762 133.949 216.144 134.212 216.57 134.38C217.122 134.586 217.727 134.604 218.29 134.43C218.261 133.834 218.012 133.269 217.591 132.846C217.169 132.423 216.606 132.172 216.01 132.14C215.585 132.129 215.164 132.229 214.79 132.43Z" fill="#FFA8A7"/>
<path d="M215.7 122.76C215.7 123.62 214.93 122.47 214.11 122.42C213.29 122.37 212.64 123.42 212.7 122.57C212.706 122.369 212.753 122.171 212.837 121.989C212.92 121.806 213.04 121.642 213.188 121.506C213.336 121.37 213.51 121.265 213.699 121.197C213.888 121.129 214.089 121.099 214.29 121.11C214.695 121.143 215.071 121.335 215.335 121.644C215.599 121.954 215.73 122.355 215.7 122.76Z" fill="#263238"/>
<path d="M226.68 121.9C226.82 122.74 225.98 121.8 225.17 121.9C224.36 122 223.9 123.19 223.76 122.35C223.723 122.156 223.726 121.957 223.767 121.764C223.809 121.571 223.889 121.389 224.002 121.227C224.115 121.065 224.259 120.928 224.426 120.823C224.593 120.718 224.78 120.647 224.974 120.615C225.169 120.583 225.368 120.591 225.56 120.637C225.752 120.683 225.932 120.767 226.091 120.883C226.25 121 226.384 121.148 226.485 121.317C226.586 121.487 226.652 121.675 226.68 121.87V121.9Z" fill="#263238"/>
<path d="M215.33 117.68L211.73 119.49C211.504 118.978 211.482 118.4 211.668 117.872C211.854 117.344 212.233 116.907 212.73 116.65C212.967 116.54 213.225 116.48 213.486 116.472C213.747 116.465 214.008 116.511 214.251 116.607C214.494 116.704 214.715 116.848 214.901 117.033C215.086 117.217 215.232 117.437 215.33 117.68Z" fill="#263238"/>
<path d="M226.94 119L223.34 117.28C223.428 117.033 223.566 116.807 223.747 116.617C223.928 116.427 224.146 116.278 224.389 116.178C224.631 116.078 224.892 116.03 225.154 116.037C225.416 116.044 225.673 116.107 225.91 116.22C226.396 116.473 226.77 116.898 226.96 117.412C227.15 117.925 227.143 118.491 226.94 119Z" fill="#263238"/>
<path d="M219.12 120.18L219.93 129.85L225.03 128L219.12 120.18Z" fill="#AF6152"/>
<path d="M192.06 142.88C191 142.46 188.26 140.34 185.86 139.03C183.62 137.81 180.42 136.1 179.4 135.03C175.79 131.26 166.11 122.82 166.11 122.82C166.11 122.82 168.19 106.45 168.78 103.02C169.024 100.876 169.541 98.7724 170.32 96.7601C171.32 95.5101 173.77 94.0601 174.86 92.5101C175.861 91.1293 176.657 89.61 177.22 88.0001C177.608 86.9888 178.13 86.0337 178.77 85.1601C179.55 84.0201 178.14 83.5101 177.25 83.6901C176.464 83.8479 175.745 84.2421 175.19 84.8201C174.46 85.6301 173.6 87.5001 172.36 87.5801C171.36 87.6401 171.99 85.9101 172.09 85.3701C172.283 84.4117 172.568 83.4741 172.94 82.5701C173.33 81.5701 173.81 79.9501 174.34 78.1101C174.732 76.7974 174.904 75.4289 174.85 74.0601C174.862 73.6772 174.784 73.2968 174.623 72.9495C174.461 72.6021 174.221 72.2975 173.92 72.0601C173.12 71.5501 172.61 72.4801 172.29 73.2201C171.888 73.1821 171.482 73.1821 171.08 73.2201C170.737 73.2635 170.411 73.395 170.134 73.6018C169.858 73.8086 169.639 74.0836 169.5 74.4001C168.838 74.2733 168.153 74.3599 167.544 74.6474C166.935 74.935 166.433 75.4086 166.11 76.0001C165.85 76.5001 165.8 76.4601 165.25 76.5401C164.25 76.6901 163.91 77.5401 163.43 78.3501C162.026 80.3768 160.971 82.6246 160.31 85.0001C159.31 88.7301 159.78 92.7101 159.43 96.5101C159.321 97.8462 159.032 99.1615 158.57 100.42C157.22 104.06 156.46 106.42 155.19 110.09C154.45 112.21 152.8 116.63 151.87 119.67C149.7 126.73 149.19 126.78 154.87 133.01C161.29 140.07 173.13 149.4 179.3 159.2C180.44 161.02 180.11 163.8 180.83 165.68C181.43 168.98 186.28 170.57 191.26 163.43C194.77 158.35 197.27 150.69 192.06 142.88Z" fill="#C8856A"/>
<path d="M166.11 122.82C165.74 124.43 164.21 129.48 161.69 130.35C165.33 130.16 166.78 125.35 167.06 123.68L166.11 122.82Z" fill="#AF6152"/>
<path d="M248 323.4C252.853 317.793 257.355 311.892 261.48 305.73C264.38 301.4 261.78 294.08 256.7 283.42C251 271.87 227.4 289.3 227.4 289.3L236.59 302.05C231.59 306.49 230.23 311.59 227.69 319.75C226.24 324.4 224.31 329.25 223.24 331.84C221.72 335.37 220.86 335.44 218.34 338.3C215.61 341.39 215.46 344.82 222.45 348.83C226.55 351.19 228.92 355.78 230.23 358.37C230.886 359.653 231.798 360.788 232.911 361.703C234.025 362.618 235.314 363.295 236.7 363.69C239.3 365.19 240.06 364.87 243.04 364.89C244.947 364.841 246.804 364.27 248.41 363.24C248.865 363.286 249.326 363.237 249.761 363.096C250.197 362.955 250.598 362.725 250.94 362.42C252.12 361.42 252.39 360.7 250.49 358.98C247.147 355.789 244.073 352.327 241.3 348.63C238.46 344.72 234.81 339.2 237.85 335.56C240.7 332.18 244.44 327.69 248 323.4Z" fill="#FFA8A7"/>
<path d="M286.17 250.55C302.17 253.4 304.43 256.43 303.74 264.65C303.116 270.474 301.879 276.216 300.05 281.78C299.718 278.931 298.377 276.295 296.27 274.35C294.42 273.68 269.98 273.68 269.98 273.68C269.98 273.68 269.39 249.68 286.17 250.55Z" fill="#FFA8A7"/>
<path d="M248.77 273.84L276.87 274.31C274.71 266.76 281.04 253.95 288.57 251.01C280.86 249.52 262.47 245.31 262.47 245.31L248.77 273.84Z" fill="#263238"/>
<path d="M253 273.91L251.64 270.58C251.64 270.58 258.36 264.58 260.64 258C259.933 262.628 258.178 267.033 255.51 270.88L276.87 274.31L253 273.91Z" fill="black"/>
<path d="M212.81 245.31C210.32 254.25 209.28 263.82 217.37 277.25C224.8 289.58 235.78 301.55 235.78 301.55C235.78 301.55 237.56 297.11 244.66 292.35C254.45 285.79 259.8 288.82 259.8 288.82L251.22 269.61C251.22 269.61 260.97 262.36 262.47 245.31H212.81Z" fill="#263238"/>
<path d="M314 227.57C320.5 230.71 314.77 238.8 310.27 237.98C309.98 236.9 307.27 236.49 298.27 234.59C295.74 234.06 290.18 233 283.58 231.72C280.43 231.1 278.27 227.32 276.58 224.32C271.58 215.51 264.41 203.86 264.41 203.86L269.92 188.74C275.44 188.96 276.65 191.58 281.58 201.15C286.51 210.72 289.58 216.93 289.58 216.93C289.58 216.93 308.46 224.88 314 227.57Z" fill="#FFA8A7"/>
<path d="M267 234.24C274.46 217.83 275.8 215.17 276 206.46C276.15 200.63 275.12 195.87 271.3 189.46C271.3 189.46 266.1 187.54 256.8 188.78C243.8 190.5 238.14 192.78 238.14 192.78C234.01 193.99 229.39 201.42 224.94 211.47C220.49 221.52 214.44 231.74 212.82 245.38C230.95 266.13 256.23 256.45 262.48 245.38C263.718 241.563 265.228 237.84 267 234.24Z" fill="#D9F4FD"/>
<path opacity="0.6" d="M267 234.24C274.46 217.83 275.8 215.17 276 206.46C276.15 200.63 275.12 195.87 271.3 189.46C271.3 189.46 266.1 187.54 256.8 188.78C243.8 190.5 238.14 192.78 238.14 192.78C234.01 193.99 229.39 201.42 224.94 211.47C220.49 221.52 214.44 231.74 212.82 245.38C230.95 266.13 256.23 256.45 262.48 245.38C263.718 241.563 265.228 237.84 267 234.24Z" fill="white"/>
<path opacity="0.3" d="M264.16 214.52C265.16 217.81 265.6 218.35 263.79 223.76C261.98 229.17 257.28 239.08 255.89 243.23C254.5 247.38 252.47 254.46 252.47 254.46L253.65 253.96C253.65 253.96 255.83 245.96 257.16 242.73C258.49 239.5 263.66 227.09 264.69 224.38C265.72 221.67 267.08 218.38 265.34 214.53C266.95 209.74 267.73 206.67 267.34 202.2C267.018 199.117 266.436 196.066 265.6 193.08L264.16 214.52Z" fill="#D9F4FD"/>
<path d="M270.75 225.89C266.97 229.89 255.57 234.24 243.46 232.19C233.76 230.54 221.53 223.19 222.25 217.29L220.37 221.42C220.37 221.42 220.53 231.74 242.75 236.42C254.35 238.85 264.67 234.76 268.32 231.28L270.75 225.89Z" fill="#37474F"/>
<path d="M266.48 235.32C262.7 239.32 251.27 243.94 239.16 241.89C229.46 240.24 217.16 233.26 217.87 227.32C217.24 228.87 216.66 230.4 216.14 231.89C216.14 231.89 216.23 241.44 238.45 246.09C250.05 248.52 260.59 244.09 264.24 240.58L266.48 235.32Z" fill="#37474F"/>
<path d="M251.57 185.6C251.31 182.19 244.83 176.71 243.76 170.7C242.37 162.83 246 155 251.43 155C252.5 149.79 261.14 147.4 266.32 148.73C270.82 149.68 276.97 151.46 280.67 147.85C281.031 148.964 281.081 150.155 280.815 151.295C280.549 152.435 279.977 153.481 279.16 154.32C280.64 154.16 282.23 153.43 283.67 153.59C284.19 156.4 281.99 158.81 280.77 161.07C283.07 165.92 280.31 171.26 275.41 173.07L251.57 185.6Z" fill="#263238"/>
<path d="M266 195.91C266.85 193.13 267.62 190.09 267.62 190.09L253.45 178.29L250.53 191.05C250.49 191.169 250.47 191.294 250.47 191.42C249.98 194.68 253.24 199.25 257.97 205.22C260.342 208.101 262.413 211.217 264.15 214.52C264.15 214.52 266.35 208.02 266.01 202.69C265.81 199.32 265.57 197.36 266 195.91Z" fill="#FFA8A7"/>
<path d="M254.55 178.8C254.55 178.8 254.34 184.07 257.12 187.18C257.67 187.8 259.74 190.36 267.12 192.05L267.64 190.05C265.727 189.767 263.847 189.291 262.03 188.63C260.883 188.148 259.793 187.541 258.78 186.82C255.62 184.74 255 179.8 254.55 178.8Z" fill="#F28F8F"/>
<path d="M278 158.73C278.14 158.96 277.11 159.73 277 159.86C276.379 160.354 275.709 160.783 275 161.14C273.556 161.842 272.01 162.312 270.42 162.53C267.829 162.835 265.208 162.785 262.63 162.38C262.51 162.34 262.38 162.34 262.26 162.38C262.198 162.417 262.144 162.467 262.101 162.525C262.058 162.583 262.027 162.65 262.01 162.72C261.782 163.519 261.445 164.282 261.01 164.99C260.296 165.772 259.378 166.34 258.36 166.63C258.269 166.659 258.186 166.711 258.12 166.78C258.074 166.852 258.047 166.935 258.04 167.02C257.81 168.95 258.83 170.96 258.19 172.8C258.078 173.155 257.862 173.469 257.57 173.7C257.456 173.787 257.324 173.848 257.184 173.88C257.045 173.911 256.899 173.913 256.759 173.883C256.619 173.854 256.486 173.794 256.371 173.709C256.255 173.624 256.16 173.515 256.09 173.39C255.411 172.235 254.79 171.047 254.23 169.83C253.959 169.382 253.665 168.948 253.35 168.53C253.001 167.987 252.545 167.52 252.01 167.16C251.578 166.941 251.105 166.814 250.621 166.788C250.137 166.762 249.653 166.838 249.2 167.01C248.565 167.264 248.003 167.671 247.564 168.194C247.124 168.717 246.82 169.341 246.68 170.01C246.426 171.149 246.402 172.328 246.609 173.477C246.817 174.626 247.253 175.722 247.89 176.7C248.197 177.296 248.634 177.816 249.169 178.221C249.704 178.626 250.323 178.906 250.98 179.04C252.98 179.37 253.56 178.33 253.57 178.31L254.66 179.31C255.21 181.5 256.06 184.55 257.87 186.31C259.68 188.07 261.39 188.82 264.8 189.63C268.21 190.44 273.29 190.41 275.23 189.69C277.17 188.97 280.65 187.07 280.67 175.42C280.58 161.34 278.3 159.26 278 158.73Z" fill="#FFA8A7"/>
<path d="M267.57 172.57C267.568 172.858 267.481 173.139 267.321 173.378C267.161 173.616 266.934 173.803 266.669 173.914C266.403 174.026 266.111 174.057 265.828 174.004C265.546 173.95 265.285 173.816 265.078 173.615C264.871 173.415 264.728 173.159 264.665 172.878C264.603 172.597 264.624 172.304 264.726 172.036C264.829 171.767 265.008 171.534 265.241 171.366C265.475 171.198 265.753 171.102 266.04 171.09C266.238 171.086 266.434 171.121 266.619 171.194C266.803 171.266 266.971 171.374 267.113 171.512C267.255 171.649 267.369 171.814 267.447 171.995C267.526 172.177 267.567 172.372 267.57 172.57Z" fill="#263238"/>
<path d="M266 165.75L262.86 167.51C262.633 167.081 262.58 166.58 262.712 166.113C262.845 165.646 263.152 165.247 263.57 165C263.778 164.884 264.006 164.812 264.243 164.787C264.479 164.763 264.718 164.786 264.945 164.856C265.172 164.926 265.383 165.042 265.564 165.195C265.745 165.349 265.894 165.538 266 165.75Z" fill="#263238"/>
<path d="M266.88 180L272.1 181.59C271.868 182.292 271.372 182.878 270.718 183.223C270.063 183.568 269.301 183.646 268.59 183.44C268.247 183.333 267.93 183.158 267.657 182.925C267.384 182.692 267.161 182.406 267.001 182.085C266.841 181.764 266.748 181.413 266.727 181.055C266.706 180.697 266.758 180.338 266.88 180Z" fill="#AF6152"/>
<path d="M269.73 183.48C269.633 182.756 269.274 182.092 268.722 181.613C268.169 181.134 267.461 180.873 266.73 180.88C266.729 181.257 266.809 181.629 266.965 181.972C267.121 182.315 267.349 182.621 267.634 182.868C267.919 183.114 268.253 183.297 268.615 183.403C268.977 183.508 269.357 183.535 269.73 183.48Z" fill="#F28F8F"/>
<path d="M279.22 166.48L275.76 165.39C275.82 165.162 275.925 164.947 276.07 164.761C276.215 164.575 276.396 164.419 276.603 164.305C276.81 164.191 277.038 164.12 277.273 164.097C277.508 164.074 277.745 164.099 277.97 164.17C278.436 164.32 278.826 164.644 279.058 165.074C279.291 165.505 279.349 166.008 279.22 166.48Z" fill="#263238"/>
<path d="M278.7 171.48C278.712 171.677 278.685 171.875 278.621 172.061C278.557 172.248 278.456 172.42 278.325 172.568C278.194 172.715 278.035 172.836 277.858 172.922C277.68 173.008 277.487 173.059 277.29 173.07C276.891 173.075 276.506 172.923 276.22 172.645C275.933 172.368 275.768 171.989 275.76 171.59C275.753 171.397 275.784 171.204 275.851 171.023C275.918 170.842 276.02 170.676 276.152 170.534C276.283 170.393 276.441 170.278 276.617 170.198C276.792 170.117 276.982 170.072 277.175 170.065C277.565 170.05 277.944 170.191 278.23 170.457C278.372 170.588 278.486 170.746 278.567 170.922C278.648 171.097 278.693 171.287 278.7 171.48Z" fill="#263238"/>
<path d="M260.55 169.81L258.27 171.07L255.49 172.61C255.16 172 254.88 171.36 254.58 170.73L258 168.89L260.13 167.75L260.55 169.81Z" fill="#D9F4FD"/>
<path opacity="0.1" d="M260.55 169.81L258.27 171.07L255.49 172.61C255.16 172 254.88 171.36 254.58 170.73L258 168.89L260.13 167.75L260.55 169.81Z" fill="black"/>
<path d="M283.69 165.83C281.255 165.617 278.802 165.847 276.45 166.51C274.37 167.32 273.66 168.1 272.5 168.2C271.34 168.3 270.43 167.62 268.17 167.13C265.818 166.851 263.437 166.959 261.12 167.45C260.34 167.52 259.64 167.8 259.67 168.84C259.7 169.88 260.45 169.93 260.67 170.71C261.18 173.42 261.88 176.88 265.46 176.83C272.85 176.83 270.09 169.78 272.81 169.97C273.81 170.13 273.76 172.02 274.44 173.33C274.693 173.852 275.031 174.329 275.44 174.74C277.98 177.13 282.44 175.44 283.03 172.87C283.57 171.58 283.35 169.58 283.93 168.45C284.45 167.92 284.83 166 283.69 165.83ZM270 172.29C269.878 173.057 269.562 173.781 269.08 174.39C268.704 174.817 268.242 175.16 267.726 175.397C267.209 175.635 266.649 175.762 266.08 175.77C265.316 175.885 264.535 175.744 263.86 175.367C263.185 174.991 262.654 174.401 262.35 173.69L262.18 173.28C261.8 172.15 261.24 169.75 261.82 169.01C262.82 167.77 268.15 167.54 269.82 169.23C270.3 169.82 270.23 171.15 270 172.29ZM282.54 170.91C282.492 171.583 282.297 172.237 281.969 172.826C281.64 173.415 281.187 173.925 280.64 174.32C278.64 175.45 275.82 174.58 275.29 172.65C273.85 168.65 275.4 167.58 279.46 166.92C282.83 166.72 283.07 167.58 282.56 170.91H282.54Z" fill="#D9F4FD"/>
<path d="M282.56 170.91C282.512 171.583 282.317 172.237 281.989 172.826C281.66 173.415 281.207 173.925 280.66 174.32C278.66 175.45 275.84 174.58 275.31 172.65C273.87 168.65 275.42 167.58 279.48 166.92C282.83 166.72 283.07 167.58 282.56 170.91Z" fill="#37474F"/>
<path d="M270 172.29C269.878 173.057 269.562 173.78 269.08 174.39C268.704 174.816 268.242 175.159 267.726 175.397C267.209 175.635 266.648 175.762 266.08 175.77C265.316 175.885 264.535 175.744 263.86 175.367C263.185 174.991 262.654 174.401 262.35 173.69L262.18 173.28C261.8 172.15 261.24 169.75 261.82 169.01C262.82 167.77 268.15 167.54 269.82 169.23C270.3 169.82 270.23 171.15 270 172.29Z" fill="#37474F"/>
<path d="M266.05 168C264.25 167.94 262.43 168.31 261.87 169C261.31 169.69 261.87 172.14 262.23 173.27C262.263 173.334 262.289 173.401 262.31 173.47C262.853 173.402 263.387 173.271 263.9 173.08C264.23 172.95 264.65 172.81 264.9 173.08C265.15 173.35 265.05 173.66 264.9 173.95C264.594 174.443 264.45 175.021 264.49 175.6C265.014 175.746 265.557 175.806 266.1 175.78C266.669 175.772 267.229 175.645 267.746 175.407C268.262 175.169 268.724 174.826 269.1 174.4C269.257 174.202 269.398 173.991 269.52 173.77C268.91 174.118 268.222 174.307 267.52 174.32C267.4 174.343 267.277 174.341 267.158 174.313C267.039 174.286 266.927 174.234 266.83 174.16C266.737 174.048 266.674 173.913 266.648 173.77C266.621 173.626 266.632 173.478 266.68 173.34C266.865 172.591 267.205 171.889 267.68 171.28C267.826 171.102 267.938 170.899 268.01 170.68C268.041 170.571 268.038 170.454 268 170.347C267.963 170.239 267.893 170.146 267.8 170.08C267.706 170.038 267.603 170.016 267.5 170.016C267.397 170.016 267.294 170.038 267.2 170.08C266.718 170.239 266.258 170.458 265.83 170.73C265.55 170.91 265.2 171.12 264.92 170.94C264.85 170.884 264.794 170.812 264.756 170.73C264.717 170.649 264.698 170.56 264.7 170.47C264.72 170.007 264.9 169.565 265.21 169.22C265.44 168.81 265.74 168.42 266.05 168Z" fill="#455A64"/>
<path d="M281.86 172.57C281.672 172.652 281.47 172.694 281.265 172.694C281.06 172.694 280.858 172.652 280.67 172.57C280.583 172.533 280.51 172.47 280.46 172.39C280.44 172.308 280.44 172.222 280.46 172.14C280.543 171.564 280.733 171.007 281.02 170.5C281.163 170.26 281.213 169.975 281.16 169.7C281.075 169.528 280.937 169.387 280.766 169.299C280.595 169.211 280.4 169.18 280.21 169.21C279.82 169.21 279.46 169.4 279.08 169.44C278.875 169.473 278.666 169.43 278.49 169.32C278.402 169.245 278.334 169.149 278.292 169.04C278.25 168.932 278.235 168.815 278.25 168.7C278.281 168.47 278.359 168.249 278.48 168.05C278.702 167.649 278.967 167.274 279.27 166.93C275.8 167.51 274.27 168.45 275.01 171.48C275.125 171.553 275.245 171.617 275.37 171.67C275.931 171.86 276.539 171.86 277.1 171.67C277.581 171.462 278.09 171.324 278.61 171.26C278.802 171.257 278.99 171.321 279.14 171.44C279.231 171.538 279.297 171.656 279.332 171.785C279.367 171.914 279.369 172.05 279.34 172.18C279.266 172.564 279.134 172.935 278.95 173.28C278.771 173.63 278.682 174.018 278.69 174.41C278.705 174.535 278.738 174.656 278.79 174.77C279.458 174.766 280.115 174.594 280.7 174.27C281.422 173.816 281.965 173.127 282.24 172.32C282.118 172.411 281.992 172.495 281.86 172.57Z" fill="#455A64"/>
<path d="M271.5 171.09L272.98 178.46L277.88 176.55C276.906 173.854 275.085 171.546 272.69 169.97C271.71 169.94 271.5 171.09 271.5 171.09Z" fill="#F28F8F"/>
<path d="M238 219.39C238 219.39 247.51 201.39 239.22 192.39C232.05 194.18 226.61 194.86 223.68 203.39C221.58 209.48 220.68 212.15 218.04 221.94C216.51 227.68 216.15 229.33 215.04 233.29C212.81 241.13 210.85 243.41 214.04 249.05C217.78 255.72 218.62 255.83 226.35 266.31C230.79 272.31 233.98 275.31 234.35 279.31C234.445 280.371 234.761 281.401 235.278 282.332C235.795 283.264 236.5 284.077 237.35 284.72L240.98 268.61C239.77 265.61 229.98 242.71 229.98 242.71L238 219.39Z" fill="#FFA8A7"/>
<path opacity="0.3" d="M377.73 317.84C377.73 317.84 401.39 336.84 411.13 350.54C419.78 362.68 419.13 370.45 413.28 374.93C411.43 368.46 399.28 355.12 383.51 341.46C392.09 334.06 377.73 317.84 377.73 317.84Z" fill="white"/>
<path d="M289 331.84C279.07 321.16 253.31 274.21 253.31 274.21L289.89 260.74L302.08 263.87C304.438 264.511 306.729 265.378 308.92 266.46C318.083 271.154 326.895 276.501 335.29 282.46C358.38 298.56 366.23 305.31 377.76 317.83C380.13 320.4 394.46 336.07 381.29 342.93C366.72 350.51 345.09 342.21 315.65 336.07C306.944 334.202 298.145 332.793 289.29 331.85L289 331.84Z" fill="#455A64"/>
<path d="M276.87 302.47C281.96 311.09 291.64 322.02 305.32 327.26C319 332.5 346.62 342.59 361.25 343.54C375.88 344.49 384.08 341.78 386.73 335.46C386.52 338.33 385 340.99 381.26 342.94C366.69 350.52 345.06 342.22 315.62 336.08C306.914 334.211 298.115 332.803 289.26 331.86H288.97C279.17 321.32 253.28 274.23 253.28 274.23L290.35 286.57C279.72 289 271.78 293.86 276.87 302.47Z" fill="#37474F"/>
<path d="M256.22 268.33L270.63 260C274.109 258.123 278.164 257.613 282 258.57L302.76 264.06C304.486 264.535 306.143 265.23 307.69 266.13C308.099 266.314 308.451 266.606 308.708 266.974C308.965 267.342 309.118 267.772 309.15 268.22C309.2 273.38 305.44 278.84 298.08 283.09C290.72 287.34 281.26 289.51 272.32 289.49C271.056 289.519 269.804 289.23 268.68 288.65C267.152 287.756 265.797 286.594 264.68 285.22L253.79 274.88C252 272.82 253 270.16 256.22 268.33Z" fill="#263238"/>
<path d="M296.51 269.87C299.72 268.02 299.32 265.15 295.72 264.16L280.36 260.16C277.749 259.515 274.991 259.871 272.63 261.16L258.23 269.47C256.06 270.72 255.37 272.53 256.53 273.94L265.31 281.72C267.02 283.8 271.99 284.02 275.19 282.17L296.51 269.87Z" fill="#455A64"/>
<path d="M268.66 288.65C267.918 288.219 267.216 287.724 266.56 287.17L305.15 264.89C306.018 265.241 306.86 265.652 307.67 266.12C307.896 266.242 308.108 266.39 308.3 266.56C308.473 266.704 308.625 266.873 308.75 267.06C308.993 267.395 309.125 267.797 309.13 268.21C309.18 273.37 305.42 278.83 298.06 283.08C296.171 284.155 294.205 285.091 292.18 285.88C290.09 286.689 287.949 287.357 285.77 287.88C282.457 288.689 279.076 289.191 275.67 289.38C274.54 289.45 273.42 289.48 272.3 289.48C271.321 289.494 270.349 289.328 269.43 288.99C269.165 288.894 268.907 288.777 268.66 288.64V288.65Z" fill="#37474F"/>
<path d="M324.54 313.89C332.15 315.89 354.65 315.63 354.65 315.63C354.65 315.63 355.44 303.08 348.98 294.72C345.39 290.08 334.07 277.83 329.48 277.34C324.89 276.85 316.74 276.42 313.63 277.85C310.52 279.28 302.57 291.33 303.5 294.58C304.43 297.83 319.88 312.65 324.54 313.89Z" fill="#D9F4FD"/>
<path opacity="0.3" d="M313.63 277.85C316.74 276.42 324.89 276.85 329.48 277.34C334.07 277.83 345.39 290.08 348.98 294.72C355.44 303.08 354.65 315.63 354.65 315.63C347.25 295.66 318.15 276.05 313.63 277.85Z" fill="white"/>
<path d="M314.55 246.43L311.84 241.74L323.3 235.13C323.518 235.023 323.76 234.978 324.002 234.999C324.243 235.02 324.474 235.107 324.67 235.25C325.228 235.611 325.693 236.1 326.027 236.675C326.36 237.25 326.553 237.896 326.59 238.56C326.612 238.793 326.574 239.027 326.48 239.241C326.385 239.454 326.237 239.64 326.05 239.78L314.55 246.43Z" fill="#37474F"/>
<path d="M315.1 245.19C315.1 246.41 314.25 246.91 313.19 246.3C312.633 245.936 312.17 245.446 311.838 244.869C311.506 244.292 311.315 243.645 311.28 242.98C311.28 241.76 312.13 241.27 313.19 241.88C313.747 242.242 314.21 242.731 314.542 243.306C314.874 243.881 315.065 244.527 315.1 245.19Z" fill="#263238"/>
<path d="M306.21 248.85L305.47 247.58L312.74 243.37C312.798 243.337 312.863 243.319 312.93 243.319C312.997 243.319 313.062 243.337 313.12 243.37C313.273 243.47 313.399 243.604 313.49 243.762C313.58 243.921 313.632 244.098 313.64 244.28C313.645 244.343 313.634 244.407 313.608 244.465C313.582 244.522 313.541 244.572 313.49 244.61L306.21 248.85Z" fill="#F0F0F0"/>
<path d="M306.36 248.51C306.36 248.85 306.13 248.98 305.84 248.82C305.689 248.719 305.563 248.584 305.472 248.426C305.382 248.268 305.33 248.092 305.32 247.91C305.32 247.58 305.55 247.44 305.84 247.61C305.991 247.709 306.117 247.842 306.208 247.998C306.298 248.154 306.35 248.33 306.36 248.51Z" fill="#E0E0E0"/>
<path d="M268.92 277.46C271.28 277.36 277.29 276.64 278.97 280L287.4 284.4L293.93 280C293.93 280 290.65 267.45 300.3 260L268.92 277.46Z" fill="#D9F4FD"/>
<path opacity="0.2" d="M268.92 277.46C271.28 277.36 277.29 276.64 278.97 280L287.4 284.4L293.93 280C293.93 280 290.65 267.45 300.3 260L268.92 277.46Z" fill="black"/>
<path d="M278.97 273.98L256.74 281.68V276.62L274.27 266.49L278.97 273.98Z" fill="#D9F4FD"/>
<path d="M269.89 263.96L252.36 274.08L256.74 276.62L274.27 266.49L269.89 263.96Z" fill="#D9F4FD"/>
<path opacity="0.3" d="M269.89 263.96L252.36 274.08L256.74 276.62L274.27 266.49L269.89 263.96Z" fill="white"/>
<path d="M256.74 281.68L252.36 279.15V274.08L256.74 276.62V281.68Z" fill="#D9F4FD"/>
<path opacity="0.1" d="M256.74 281.68L252.36 279.15V274.08L256.74 276.62V281.68Z" fill="black"/>
<path d="M292.94 255.75L310.47 245.63L306.08 243.1L288.55 253.22L292.94 255.75Z" fill="#D9F4FD"/>
<path opacity="0.3" d="M292.94 255.75L310.47 245.63L306.08 243.1L288.55 253.22L292.94 255.75Z" fill="white"/>
<path d="M310.47 250.69L297.32 263.35L292.94 255.75L310.47 245.63V250.69Z" fill="#D9F4FD"/>
<path opacity="0.1" d="M310.47 250.69L297.32 263.35L292.94 255.75L310.47 245.63V250.69Z" fill="black"/>
<path d="M273 260.33C275.333 257.485 278.108 255.033 281.22 253.07C285.45 250.64 288.42 249.78 290.14 249.73C291.86 249.68 292.83 249.99 293.52 250.78L294.92 252.41C298.61 257.35 300.23 261.16 301.08 265.82C301.75 268.998 302.165 272.225 302.32 275.47C302.32 277.88 293.96 282.71 287.32 284.4C286.22 279.74 279.75 277.01 277.63 272.4L275.14 268.09C274.477 267.047 273.593 266.163 272.55 265.5L269.89 264L273 260.33Z" fill="#D9F4FD"/>
<path d="M247.39 282.76L246.65 281.49L253.93 277.28C253.986 277.247 254.05 277.229 254.115 277.229C254.18 277.229 254.244 277.247 254.3 277.28C254.453 277.38 254.579 277.514 254.67 277.672C254.76 277.831 254.812 278.008 254.82 278.19C254.824 278.252 254.813 278.314 254.789 278.372C254.765 278.429 254.727 278.48 254.68 278.52L247.39 282.76Z" fill="#F0F0F0"/>
<path d="M247.54 282.43C247.54 282.76 247.31 282.89 247.02 282.73C246.867 282.631 246.741 282.496 246.65 282.338C246.56 282.18 246.508 282.002 246.5 281.82C246.5 281.49 246.73 281.36 247.02 281.52C247.173 281.62 247.299 281.754 247.39 281.912C247.48 282.071 247.532 282.248 247.54 282.43Z" fill="#E0E0E0"/>
<path d="M239.26 289.72L236.54 285L248 278.42C248.218 278.313 248.46 278.268 248.702 278.289C248.943 278.31 249.174 278.397 249.37 278.54C249.927 278.904 250.39 279.395 250.722 279.972C251.054 280.548 251.245 281.195 251.28 281.86C251.303 282.092 251.266 282.325 251.173 282.539C251.08 282.752 250.935 282.938 250.75 283.08L239.26 289.72Z" fill="#37474F"/>
<path d="M239.81 288.49C239.81 289.71 238.96 290.2 237.9 289.59C237.343 289.228 236.88 288.74 236.548 288.164C236.216 287.589 236.025 286.943 235.99 286.28C235.99 285.06 236.84 284.56 237.9 285.17C238.457 285.534 238.92 286.025 239.252 286.602C239.584 287.178 239.775 287.825 239.81 288.49Z" fill="#263238"/>
<path d="M239.94 266.23C241.45 269.99 243.07 271.02 244.19 271.65C246.44 272.92 248.6 274.22 250.19 275.2C250.641 275.454 251.038 275.794 251.36 276.2C252.081 277.31 252.58 278.55 252.83 279.85C253.27 281.52 253.95 283.7 253.36 285.39C252.89 286.71 251.55 286.39 251.36 286.75C250.23 288.56 249.79 287.6 249.36 287.93C248.93 288.26 248.69 288.86 248.18 289.08C247.73 289.179 247.271 289.233 246.81 289.24C246.28 289.36 246.01 290.06 245.54 290.32C245.16 290.523 244.739 290.635 244.308 290.647C243.878 290.659 243.451 290.571 243.06 290.39C242.109 290.087 241.207 289.649 240.38 289.09L242.46 287.89C242.72 286.49 242.35 283.44 240.21 282.89L237.35 284.54C236.675 283.785 236.209 282.866 235.998 281.875C235.788 280.884 235.84 279.855 236.15 278.89L239.94 266.23Z" fill="#F28F8F"/>
<path d="M314 227.57C314 227.57 316.44 228.74 318.92 229.95C321.74 231.34 323.12 231.83 324.08 232.35C324.552 232.613 324.959 232.978 325.27 233.42C325.95 234.42 326.38 235.27 327.34 236.78C328.3 238.29 328.94 241.22 327.89 242.02C327.56 242.27 326.27 242.84 326.18 243.24C326.108 243.635 325.895 243.991 325.58 244.24C325.13 244.59 324.49 244.6 324.03 244.94C323.57 245.28 323.35 245.87 322.84 246.1C322.38 246.199 321.911 246.253 321.44 246.26C320.91 246.39 320.51 246.81 319.99 246.98C319.423 247.13 318.827 247.13 318.26 246.98C317.372 246.692 316.559 246.21 315.88 245.57L317.5 244.63C317.582 243.65 317.33 242.671 316.785 241.853C316.241 241.034 315.435 240.423 314.5 240.12L312.38 241.35C310.96 240.07 310.76 239.76 310.22 237.58L314 227.57Z" fill="#FFA8A7"/>
<path d="M301.19 70.4101C296.796 66.557 291.113 64.4968 285.271 64.6384C279.428 64.78 273.852 67.1131 269.65 71.1745C265.448 75.236 262.926 80.7289 262.585 86.5633C262.244 92.3977 264.109 98.1469 267.81 102.67L265.34 109.47C265.245 109.727 265.231 110.006 265.298 110.271C265.366 110.536 265.512 110.775 265.718 110.955C265.924 111.135 266.18 111.248 266.452 111.279C266.724 111.311 266.998 111.259 267.24 111.13L273.65 107.77C278.624 110.824 284.563 111.899 290.291 110.783C296.02 109.667 301.121 106.44 304.584 101.742C308.047 97.0444 309.62 91.2175 308.991 85.415C308.363 79.6126 305.579 74.2576 301.19 70.4101ZM302.01 102.08C298.431 106.178 293.424 108.757 288.01 109.29L285.55 109.39C280.157 109.32 274.988 107.22 271.073 103.509C267.159 99.7979 264.786 94.7484 264.428 89.3664C264.07 83.9844 265.752 78.665 269.14 74.4681C272.529 70.2711 277.374 67.5048 282.71 66.7201L285.16 66.5001C289.341 66.3612 293.472 67.448 297.043 69.6267C300.614 71.8053 303.47 74.9807 305.26 78.7619C307.05 82.5432 307.695 86.7652 307.115 90.9083C306.536 95.0514 304.758 98.9347 302 102.08H302.01Z" fill="#E0E0E0"/>
<path d="M285.85 101.22C270.7 93.1502 269.48 84.4902 273.85 80.2202C277.79 76.4202 285.01 78.9202 285.85 84.3502C286.66 78.9202 293.85 76.4202 297.85 80.2202C302.23 84.4902 301 93.1502 285.85 101.22Z" fill="#D9F4FD"/>
</svg>
