<svg width="14" height="13" viewBox="0 0 14 13" fill="none" xmlns="http://www.w3.org/2000/svg">
<path d="M1.20192 11.3291C0.885515 11.6456 0.870448 12.2106 1.20945 12.542C1.54093 12.8735 2.10594 12.866 2.42235 12.5496L7.03284 7.93154L11.6509 12.5496C11.9748 12.8735 12.5323 12.8735 12.8638 12.542C13.1877 12.203 13.1952 11.6531 12.8638 11.3291L8.25326 6.71112L12.8638 2.10063C13.1952 1.77669 13.1952 1.21921 12.8638 0.887738C12.5247 0.563799 11.9748 0.556265 11.6509 0.880205L7.03284 5.49823L2.42235 0.880205C2.10594 0.563799 1.53339 0.548732 1.20945 0.887738C0.877981 1.21921 0.885515 1.78422 1.20192 2.10063L5.81995 6.71112L1.20192 11.3291Z" fill="#120F49"/>
</svg>
